<svg width="60" height="60" viewBox="0 0 60 60" fill="none" xmlns="http://www.w3.org/2000/svg">
<path d="M19.0896 41.8517C21.8227 37.7766 25.0321 34.0424 28.6498 30.7277C29.4452 30.0011 31.7701 27.2862 32.7531 29.1254C33.2004 29.9552 32.7531 31.6453 32.4853 32.4752C31.7035 34.9058 29.7736 36.7941 27.3267 37.5231C23.9959 38.4255 22.1641 35.4161 22.3554 32.4523C22.516 30.1273 23.7856 27.94 25.4451 26.3529C29.1582 22.8041 34.6228 22.2536 39.4985 21.7641C40.2251 21.6915 40.2328 20.5403 39.4985 20.6168C34.4125 21.137 28.7911 21.7257 24.8407 25.3547C21.8428 28.1233 19.7854 33.0752 22.2786 36.8269C24.8407 40.6931 30.1138 38.3298 32.2935 35.2974C33.4867 33.634 34.2515 31.4123 33.938 29.3434C33.6857 27.592 32.4085 26.8235 30.7677 27.5842C28.3126 28.7048 26.1216 31.4427 24.309 33.3816C22.0361 35.8397 19.9595 38.4725 18.0987 41.2551C17.6858 41.8515 18.6762 42.4442 19.0891 41.8515L19.0896 41.8517Z" fill="#090C08"/>
<path d="M34.2521 19.1178C36.9433 19.5555 39.6633 19.7921 42.3898 19.8254L41.9004 18.9649L37.8355 24.3836C37.3919 24.9763 38.39 25.5308 38.8259 24.9611L42.8871 19.5424C43.1587 19.1599 42.7876 18.6818 42.3899 18.6781C39.7624 18.6504 37.1409 18.4269 34.5465 18.0089C33.8236 17.8904 33.5139 18.9955 34.2405 19.114L34.2521 19.1178Z" fill="#090C08"/>
<rect x="0.375" y="0.375" width="59.25" height="59.25" stroke="#090C08" stroke-width="0.75"/>
</svg>
