<svg width="129" height="24" viewBox="0 0 129 24" fill="none" xmlns="http://www.w3.org/2000/svg">
<g clip-path="url(#clip0_94_2346)">
<path d="M51.4366 4.71313H48.75V16.8356H56.1873V14.4602H51.4366V4.71313Z" fill="#3D3A2C"/>
<path d="M56.444 12.7235C56.444 15.3118 58.1805 17.0319 60.8015 17.0319C63.4062 17.0319 65.1426 15.3118 65.1426 12.7235C65.1426 10.1352 63.4062 8.39868 60.8015 8.39868C58.1805 8.39868 56.444 10.1352 56.444 12.7235ZM58.9831 12.7071C58.9831 11.4785 59.7039 10.6594 60.8015 10.6594C61.8827 10.6594 62.6035 11.4785 62.6035 12.7071C62.6035 13.9521 61.8827 14.7712 60.8015 14.7712C59.7039 14.7712 58.9831 13.9521 58.9831 12.7071Z" fill="#3D3A2C"/>
<path d="M65.5481 12.5924C65.5481 15.066 67.1535 16.7369 69.4305 16.7369C70.5281 16.7369 71.4782 16.3438 71.9533 15.7049V16.8353C71.9533 17.9656 71.2489 18.7191 70.0039 18.7191C68.8899 18.7191 68.12 18.1949 68.0708 17.2612H65.5153C65.7446 19.5055 67.4811 21.0125 69.8564 21.0125C72.6577 21.0125 74.4269 19.1942 74.4269 16.311V8.64444H72.1499L72.0188 9.47987C71.5601 8.80824 70.5936 8.36597 69.4797 8.36597C67.1862 8.36597 65.5481 10.086 65.5481 12.5924ZM68.1036 12.5269C68.1036 11.3474 68.8899 10.5611 69.8892 10.5611C71.0523 10.5611 71.9042 11.331 71.9042 12.5269C71.9042 13.7228 71.0687 14.5418 69.9056 14.5418C68.9063 14.5418 68.1036 13.7228 68.1036 12.5269Z" fill="#3D3A2C"/>
<path d="M75.1626 12.7235C75.1626 15.3118 76.8991 17.0319 79.5204 17.0319C82.1251 17.0319 83.8614 15.3118 83.8614 12.7235C83.8614 10.1352 82.1251 8.39868 79.5204 8.39868C76.8991 8.39868 75.1626 10.1352 75.1626 12.7235ZM77.7016 12.7071C77.7016 11.4785 78.4224 10.6594 79.5204 10.6594C80.6011 10.6594 81.3219 11.4785 81.3219 12.7071C81.3219 13.9521 80.6011 14.7712 79.5204 14.7712C78.4224 14.7712 77.7016 13.9521 77.7016 12.7071Z" fill="#3D3A2C"/>
<path d="M86.0362 7.36679C86.8222 7.36679 87.4612 6.7279 87.4612 5.9252C87.4612 5.1225 86.8222 4.5 86.0362 4.5C85.2337 4.5 84.5947 5.1225 84.5947 5.9252C84.5947 6.7279 85.2337 7.36679 86.0362 7.36679ZM84.7582 16.8354H87.2977V8.64457H84.7582V16.8354Z" fill="#3D3A2C"/>
<path d="M88.776 20.7671H91.266V16.0164C91.7408 16.6389 92.8223 17.0649 93.9525 17.0649C96.393 17.0649 97.8675 15.1974 97.8023 12.609C97.7363 9.97159 96.213 8.38257 93.936 8.38257C92.7728 8.38257 91.6755 8.89039 91.2165 9.64399L91.0853 8.64469H88.776V20.7671ZM91.3148 12.7401C91.3148 11.5115 92.1338 10.6924 93.3135 10.6924C94.509 10.6924 95.2628 11.5278 95.2628 12.7401C95.2628 13.9524 94.509 14.7878 93.3135 14.7878C92.1338 14.7878 91.3148 13.9687 91.3148 12.7401Z" fill="#3D3A2C"/>
<path d="M98.0707 14.2472C98.136 15.9018 99.447 17.0484 101.511 17.0484C103.493 17.0484 104.869 16 104.869 14.3127C104.869 13.1005 104.149 12.2978 102.805 11.9701L101.347 11.6097C100.823 11.4787 100.495 11.3476 100.495 10.9217C100.495 10.4958 100.839 10.2173 101.347 10.2173C101.92 10.2173 102.297 10.5941 102.281 11.151H104.558C104.492 9.44734 103.198 8.38257 101.396 8.38257C99.5782 8.38257 98.2185 9.46377 98.2185 11.1019C98.2185 12.1995 98.8245 13.1005 100.446 13.5264L101.887 13.9032C102.313 14.0178 102.493 14.2144 102.493 14.4929C102.493 14.9025 102.117 15.1646 101.478 15.1646C100.741 15.1646 100.348 14.8206 100.348 14.2472H98.0707Z" fill="#3D3A2C"/>
<path d="M108.731 17.0485C109.73 17.0485 110.729 16.5898 111.237 15.9182L111.401 16.8356H113.777V8.64478H111.254V12.904C111.254 14.1326 110.894 14.8042 109.73 14.8042C108.829 14.8042 108.239 14.3947 108.239 12.8712V8.64478H105.716V13.7886C105.716 15.738 106.798 17.0485 108.731 17.0485Z" fill="#3D3A2C"/>
<path d="M117.777 16.8353V12.3631C117.777 10.987 118.514 10.5938 119.235 10.5938C120.037 10.5938 120.562 11.0853 120.562 12.101V16.8353H123.052V12.3631C123.052 10.9706 123.772 10.5775 124.493 10.5775C125.296 10.5775 125.836 11.0689 125.836 12.101V16.8353H128.294V11.4785C128.294 9.61097 127.311 8.36597 125.197 8.36597C124.018 8.36597 123.052 8.93927 122.626 9.82389C122.134 8.93927 121.282 8.36597 119.923 8.36597C119.022 8.36597 118.186 8.77547 117.695 9.43074L117.597 8.64444H115.237V16.8353H117.777Z" fill="#3D3A2C"/>
<path d="M0.75 12C0.75 5.37258 6.12258 0 12.75 0H28.5C35.1274 0 40.5 5.37258 40.5 12V24H12.75C6.12258 24 0.75 18.6275 0.75 12Z" fill="#3D3A2C"/>
<path d="M28.5 4.5H12.75C8.60786 4.5 5.25 7.85786 5.25 12C5.25 16.1421 8.60786 19.5 12.75 19.5H28.5C32.6421 19.5 36 16.1421 36 12C36 7.85786 32.6421 4.5 28.5 4.5Z" fill="#D3D3D6"/>
<path d="M12.75 15.75C14.8211 15.75 16.5 14.0711 16.5 12C16.5 9.92893 14.8211 8.25 12.75 8.25C10.6789 8.25 9 9.92893 9 12C9 14.0711 10.6789 15.75 12.75 15.75Z" fill="#3D3A2C"/>
<path d="M11.25 11.25C11.6642 11.25 12 10.9142 12 10.5C12 10.0858 11.6642 9.75 11.25 9.75C10.8358 9.75 10.5 10.0858 10.5 10.5C10.5 10.9142 10.8358 11.25 11.25 11.25Z" fill="white"/>
<path d="M29.25 15.75C31.3211 15.75 33 14.0711 33 12C33 9.92893 31.3211 8.25 29.25 8.25C27.1789 8.25 25.5 9.92893 25.5 12C25.5 14.0711 27.1789 15.75 29.25 15.75Z" fill="#3D3A2C"/>
<path d="M27.75 11.25C28.1642 11.25 28.5 10.9142 28.5 10.5C28.5 10.0858 28.1642 9.75 27.75 9.75C27.3358 9.75 27 10.0858 27 10.5C27 10.9142 27.3358 11.25 27.75 11.25Z" fill="white"/>
</g>
<defs>
<clipPath id="clip0_94_2346">
<rect width="128.25" height="24" fill="white" transform="translate(0.75)"/>
</clipPath>
</defs>
</svg>
