<svg width="116" height="36" viewBox="0 0 116 36" fill="none" xmlns="http://www.w3.org/2000/svg">
<path fill-rule="evenodd" clip-rule="evenodd" d="M56.8969 5.79719C57.983 4.71116 59.7439 4.71116 60.83 5.79719C61.9161 6.88329 61.9161 8.64418 60.83 9.73029L54.2085 16.3519C52.3073 13.804 52.5139 10.1804 54.828 7.86619L56.8969 5.79719Z" fill="#D3D3D6"/>
<path fill-rule="evenodd" clip-rule="evenodd" d="M66.3631 20.7364C67.4493 21.8224 67.4493 23.5833 66.3631 24.6694C65.2776 25.7555 63.5164 25.7555 62.4303 24.6694L55.8087 18.0479C58.3566 16.1468 61.9802 16.3532 64.2944 18.6674L66.3631 20.7364Z" fill="#D3D3D6"/>
<path fill-rule="evenodd" clip-rule="evenodd" d="M51.4239 30.2028C50.3379 31.2889 48.5769 31.2889 47.4909 30.2028C46.4048 29.1167 46.4048 27.3558 47.4909 26.2697L54.1124 19.6482C56.0135 22.1961 55.8071 25.8197 53.4929 28.1338L51.4239 30.2028Z" fill="#D3D3D6"/>
<path fill-rule="evenodd" clip-rule="evenodd" d="M41.9576 15.2633C40.8715 14.1772 40.8715 12.4163 41.9576 11.3302C43.0437 10.2441 44.8046 10.2441 45.8907 11.3302L52.5123 17.9518C49.9644 19.8529 46.3407 19.6464 44.0266 17.3323L41.9576 15.2633Z" fill="#D3D3D6"/>
<path fill-rule="evenodd" clip-rule="evenodd" d="M55.4173 29.3919C57.0188 27.6113 57.7631 25.3329 57.6502 23.0896L60.8302 26.2697C60.8381 26.2776 60.8461 26.2855 60.8541 26.2934V28.5637C60.8541 30.0997 59.609 31.3448 58.073 31.3448C56.8255 31.3448 55.7698 30.5234 55.4173 29.3919Z" fill="#D3D3D6"/>
<path fill-rule="evenodd" clip-rule="evenodd" d="M42.7686 19.2566C44.5491 20.8581 46.8275 21.6025 49.0708 21.4895L45.8908 24.6696C45.8828 24.6775 45.8749 24.6855 45.8671 24.6934H43.5968C42.0608 24.6935 40.8157 23.4482 40.8157 21.9123C40.8157 20.6648 41.6371 19.6091 42.7686 19.2566Z" fill="#D3D3D6"/>
<path fill-rule="evenodd" clip-rule="evenodd" d="M65.5522 16.7433C63.7719 15.1417 61.4935 14.3974 59.2502 14.5102L62.4302 11.3303C62.4381 11.3224 62.446 11.3144 62.4539 11.3064H64.7243C66.2605 11.3064 67.5056 12.5516 67.5056 14.0876C67.5056 15.3351 66.6839 16.3908 65.5522 16.7433Z" fill="#D3D3D6"/>
<path fill-rule="evenodd" clip-rule="evenodd" d="M52.9036 6.60803C51.302 8.38856 50.5578 10.667 50.6706 12.9103L47.4907 9.73026C47.4827 9.72236 47.4748 9.71445 47.4668 9.70655V7.43619C47.4668 5.90024 48.7119 4.65503 50.2479 4.65503C51.4954 4.65503 52.5511 5.47653 52.9036 6.60803Z" fill="#D3D3D6"/>
<path fill-rule="evenodd" clip-rule="evenodd" d="M50.2481 2.39233C47.4625 2.39233 45.2043 4.65055 45.2043 7.43617V8.41716C43.5284 7.97929 41.6711 8.41693 40.3578 9.73022C38.3881 11.7 38.3881 14.8936 40.3578 16.8633L41.0514 17.5569C39.5568 18.4324 38.553 20.0551 38.553 21.9123C38.553 24.6979 40.8113 26.9561 43.5969 26.9561H44.5778C44.1399 28.632 44.5776 30.4893 45.8909 31.8025C47.8606 33.7723 51.0542 33.7723 53.0239 31.8025L55.0928 29.7336C56.918 27.9085 57.7704 25.479 57.6501 23.0894L60.8302 26.2694C62.8 28.2392 65.9936 28.2392 67.9635 26.2694C69.9333 24.2997 69.9333 21.1061 67.9635 19.1364L67.2701 18.4428C68.7641 17.5674 69.7682 15.9447 69.7682 14.0875C69.7682 11.3019 67.5096 9.04364 64.7243 9.04364H63.7433C64.1812 7.36769 63.7435 5.5104 62.4302 4.19711C60.4605 2.22736 57.2669 2.22736 55.2972 4.19711L53.2282 6.26609C51.4031 8.09121 50.5507 10.5207 50.671 12.9103L47.4909 9.73022C47.4829 9.72232 47.475 9.71441 47.467 9.70651V7.43617C47.467 5.90022 48.7122 4.65509 50.2481 4.65509C51.4957 4.65509 52.5513 5.47652 52.9038 6.60801C53.0083 6.49187 53.1164 6.37785 53.2282 6.26609L54.6035 4.89073C53.7281 3.39611 52.1053 2.39233 50.2481 2.39233ZM62.4539 11.3064C62.446 11.3143 62.4382 11.3223 62.4302 11.3302L59.2502 14.5102C61.4936 14.3973 63.7719 15.1416 65.5523 16.7432C66.6839 16.3907 67.5056 15.335 67.5056 14.0875C67.5056 12.5515 66.2605 11.3064 64.7243 11.3064H62.4539ZM45.8671 24.6934C45.875 24.6854 45.8829 24.6774 45.8909 24.6695L49.0708 21.4895C46.8276 21.6024 44.5492 20.8581 42.7687 19.2566C41.6372 19.6091 40.8157 20.6648 40.8157 21.9123C40.8157 23.4483 42.0609 24.6934 43.5969 24.6934H45.8671ZM58.073 33.6075C56.2157 33.6075 54.593 32.6036 53.7176 31.109L55.0928 29.7336C55.2047 29.6219 55.3128 29.5078 55.4172 29.3917C55.7697 30.5232 56.8254 31.3447 58.073 31.3447C59.609 31.3447 60.8541 30.0996 60.8541 28.5636V26.2933C61.5059 26.9365 62.2892 27.3663 63.1169 27.5825V28.5636C63.1169 31.3492 60.8586 33.6075 58.073 33.6075ZM60.8302 5.79707C59.7441 4.71105 57.9833 4.71105 56.8972 5.79707L54.8282 7.86605C52.5141 10.1802 52.3075 13.8039 54.2087 16.3517L60.8302 9.73014C61.9163 8.64404 61.9163 6.88318 60.8302 5.79707ZM66.363 24.6694C67.4493 23.5833 67.4493 21.8225 66.363 20.7364L64.2943 18.6674C61.9802 16.3533 58.3565 16.1468 55.8086 18.0479L62.4302 24.6694C63.5163 25.7555 65.2776 25.7555 66.363 24.6694ZM51.4239 30.2026C50.3378 31.2887 48.5769 31.2887 47.4908 30.2026C46.4048 29.1165 46.4048 27.3556 47.4908 26.2695L54.1124 19.6479C56.0135 22.1958 55.807 25.8195 53.4929 28.1336L51.4239 30.2026ZM41.9578 11.3302C40.8718 12.4163 40.8718 14.1772 41.9578 15.2633L44.0268 17.3322C46.3409 19.6463 49.9646 19.8529 52.5124 17.9518L45.8909 11.3302C44.8048 10.2442 43.0439 10.2442 41.9578 11.3302Z" fill="#3D3A2C"/>
<path d="M1.21997 12.592H3.69348V20.2782H7.94179V22.3604H1.21997V12.592Z" fill="#3D3A2C"/>
<path d="M12.433 22.57C11.6038 22.57 10.8771 22.4209 10.2529 22.1228C9.62868 21.8153 9.14425 21.3961 8.79951 20.8651C8.46416 20.3247 8.29645 19.7052 8.29645 19.0064C8.29645 18.3077 8.46416 17.6928 8.79951 17.1618C9.14425 16.6214 9.62868 16.2022 10.2529 15.9041C10.8771 15.5966 11.6038 15.4429 12.433 15.4429C13.2622 15.4429 13.9888 15.5966 14.613 15.9041C15.2372 16.2022 15.7171 16.6214 16.0524 17.1618C16.3972 17.6928 16.5695 18.3077 16.5695 19.0064C16.5695 19.7052 16.3972 20.3247 16.0524 20.8651C15.7171 21.3961 15.2372 21.8153 14.613 22.1228C13.9888 22.4209 13.2622 22.57 12.433 22.57ZM12.433 20.6554C12.9268 20.6554 13.3181 20.511 13.6068 20.2223C13.905 19.9241 14.054 19.5189 14.054 19.0064C14.054 18.494 13.905 18.0934 13.6068 17.8046C13.3181 17.5065 12.9268 17.3574 12.433 17.3574C11.9392 17.3574 11.5433 17.5065 11.2452 17.8046C10.9563 18.0934 10.8119 18.494 10.8119 19.0064C10.8119 19.5189 10.9563 19.9241 11.2452 20.2223C11.5433 20.511 11.9392 20.6554 12.433 20.6554Z" fill="#3D3A2C"/>
<path d="M21.1895 25.5746C20.7423 25.5746 20.2905 25.5327 19.834 25.4488C19.3868 25.3649 19.0001 25.2532 18.6741 25.1134V23.4085C19.41 23.7252 20.2485 23.8836 21.1895 23.8836C21.8696 23.8836 22.3587 23.7438 22.6568 23.4644C22.9643 23.1849 23.118 22.775 23.118 22.2346V21.8293C22.8479 22.0623 22.5125 22.2439 22.1118 22.3744C21.7205 22.5048 21.3013 22.57 20.8541 22.57C20.1461 22.57 19.5219 22.4209 18.9815 22.1228C18.4412 21.8247 18.0172 21.4054 17.7098 20.8651C17.4116 20.3247 17.2626 19.7052 17.2626 19.0064C17.2626 18.2984 17.4116 17.6742 17.7098 17.1339C18.0079 16.5935 18.4272 16.1788 18.9675 15.8901C19.5079 15.592 20.1275 15.4429 20.8262 15.4429C21.7858 15.4429 22.5776 15.7363 23.2019 16.3233V15.6525H25.5776V21.8992C25.5776 23.0638 25.2189 23.9675 24.5015 24.6103C23.7935 25.2532 22.6895 25.5746 21.1895 25.5746ZM21.469 20.6694C21.851 20.6694 22.191 20.5716 22.4891 20.376C22.7873 20.1803 22.9969 19.9195 23.118 19.5934V18.4195C22.9876 18.0934 22.7733 17.8372 22.4752 17.6508C22.177 17.4553 21.8417 17.3574 21.469 17.3574C20.9659 17.3574 20.5606 17.5065 20.2532 17.8046C19.9457 18.0934 19.792 18.4893 19.792 18.9925C19.792 19.5048 19.9457 19.9148 20.2532 20.2223C20.5606 20.5204 20.9659 20.6694 21.469 20.6694Z" fill="#3D3A2C"/>
<path d="M30.338 22.57C29.5088 22.57 28.7821 22.4209 28.1579 22.1228C27.5337 21.8153 27.0492 21.3961 26.7046 20.8651C26.3691 20.3247 26.2014 19.7052 26.2014 19.0064C26.2014 18.3077 26.3691 17.6928 26.7046 17.1618C27.0492 16.6214 27.5337 16.2022 28.1579 15.9041C28.7821 15.5966 29.5088 15.4429 30.338 15.4429C31.1671 15.4429 31.8938 15.5966 32.518 15.9041C33.1422 16.2022 33.622 16.6214 33.9575 17.1618C34.3021 17.6928 34.4745 18.3077 34.4745 19.0064C34.4745 19.7052 34.3021 20.3247 33.9575 20.8651C33.622 21.3961 33.1422 21.8153 32.518 22.1228C31.8938 22.4209 31.1671 22.57 30.338 22.57ZM30.338 20.6554C30.8317 20.6554 31.223 20.511 31.5119 20.2223C31.81 19.9241 31.9591 19.5189 31.9591 19.0064C31.9591 18.494 31.81 18.0934 31.5119 17.8046C31.223 17.5065 30.8317 17.3574 30.338 17.3574C29.8442 17.3574 29.4482 17.5065 29.1501 17.8046C28.8613 18.0934 28.7169 18.494 28.7169 19.0064C28.7169 19.5189 28.8613 19.9241 29.1501 20.2223C29.4482 20.511 29.8442 20.6554 30.338 20.6554Z" fill="#3D3A2C"/>
<path d="M73.9238 12.592H76.3976V22.3604H73.9238V12.592Z" fill="#3D3A2C"/>
<path d="M77.6498 15.6525H80.0257V16.3233C80.6495 15.7363 81.4415 15.4429 82.4009 15.4429C83.0998 15.4429 83.7196 15.592 84.2596 15.8901C84.8004 16.1788 85.2191 16.5935 85.5173 17.1339C85.8155 17.6649 85.965 18.2844 85.965 18.9925C85.965 19.6912 85.8155 20.3154 85.5173 20.8651C85.2191 21.4054 84.8004 21.8247 84.2596 22.1228C83.729 22.4209 83.1092 22.57 82.4009 22.57C81.9541 22.57 81.5252 22.5001 81.1159 22.3603C80.7152 22.23 80.3795 22.0482 80.1095 21.8153V25.4208H77.6498V15.6525ZM81.7584 20.6554C82.2616 20.6554 82.667 20.5064 82.9738 20.2083C83.2814 19.9102 83.4356 19.5048 83.4356 18.9925C83.4356 18.48 83.2814 18.0795 82.9738 17.7906C82.667 17.4925 82.2616 17.3434 81.7584 17.3434C81.3859 17.3434 81.0502 17.4413 80.752 17.6369C80.4538 17.8233 80.2402 18.0795 80.1095 18.4055V19.5934C80.2402 19.9195 80.4538 20.1803 80.752 20.376C81.0502 20.5623 81.3859 20.6554 81.7584 20.6554Z" fill="#3D3A2C"/>
<path d="M89.6314 22.57C89.0914 22.57 88.5279 22.5141 87.941 22.4023C87.354 22.2999 86.8876 22.1508 86.5432 21.9551V20.1524C86.9251 20.376 87.3814 20.5623 87.9128 20.7114C88.4528 20.8511 88.9466 20.921 89.3943 20.921C89.7198 20.921 89.9577 20.8977 90.1064 20.8511C90.2559 20.8045 90.3303 20.7114 90.3303 20.5716C90.3303 20.4598 90.2794 20.3713 90.1769 20.3061C90.0837 20.2316 89.9061 20.157 89.6455 20.0825C89.3943 19.9987 89.1008 19.9102 88.765 19.8169C88.1969 19.6492 87.75 19.4769 87.4236 19.2999C87.0973 19.1229 86.8555 18.8993 86.6966 18.6291C86.5385 18.3589 86.4595 18.0189 86.4595 17.609C86.4595 16.8822 86.7436 16.3419 87.3117 15.9879C87.8893 15.6245 88.6766 15.4429 89.6736 15.4429C90.1581 15.4429 90.666 15.4941 91.1966 15.5966C91.7374 15.6991 92.142 15.8342 92.4128 16.0019V17.7767C92.1334 17.5904 91.7601 17.4366 91.2944 17.3155C90.8382 17.1944 90.4093 17.1339 90.0086 17.1339C89.6924 17.1339 89.4451 17.1664 89.2683 17.2316C89.0914 17.2876 89.003 17.39 89.003 17.5391C89.003 17.6789 89.0914 17.786 89.2683 17.8605C89.4451 17.935 89.7621 18.0282 90.2183 18.14C90.5165 18.2146 90.6425 18.2471 90.5956 18.2378C91.1919 18.3962 91.6529 18.5732 91.9792 18.7689C92.3056 18.9645 92.5333 19.1974 92.664 19.4676C92.8041 19.7284 92.8737 20.0639 92.8737 20.4738C92.8737 21.1166 92.5943 21.629 92.0356 22.011C91.4854 22.3837 90.684 22.57 89.6314 22.57Z" fill="#3D3A2C"/>
<path d="M96.5459 22.5701C95.624 22.5701 94.9298 22.3139 94.4642 21.8015C94.0079 21.2891 93.7794 20.6137 93.7794 19.7752V15.6526H96.2391V19.4957C96.2391 20.269 96.5882 20.6556 97.287 20.6556C97.604 20.6556 97.8928 20.5811 98.1534 20.432C98.414 20.2829 98.6284 20.064 98.7959 19.7752V15.6526H101.256V22.3605H98.8804V21.6338C98.5916 21.9412 98.2418 22.1741 97.8317 22.3325C97.4224 22.4909 96.9936 22.5701 96.5459 22.5701Z" fill="#3D3A2C"/>
<path d="M102.515 15.6525H104.793V16.3792C105.072 16.0811 105.394 15.8528 105.757 15.6944C106.12 15.5267 106.507 15.4429 106.917 15.4429C107.42 15.4429 107.821 15.5174 108.119 15.6665C108.427 15.8155 108.673 16.0391 108.86 16.3372C109.139 16.0578 109.479 15.8388 109.88 15.6805C110.281 15.5221 110.686 15.4429 111.095 15.4429C111.981 15.4429 112.61 15.6712 112.982 16.1277C113.355 16.5748 113.541 17.2223 113.541 18.0701V22.3603H111.193V18.4195C111.193 18.0468 111.124 17.7767 110.984 17.609C110.844 17.4413 110.611 17.3574 110.285 17.3574C109.866 17.3574 109.526 17.5065 109.265 17.8046C109.274 17.963 109.279 18.2052 109.279 18.5313V22.3603H106.931V18.3217C106.931 17.977 106.871 17.73 106.75 17.581C106.628 17.432 106.414 17.3574 106.107 17.3574C105.631 17.3574 105.222 17.6229 104.877 18.154V22.3603H102.515V15.6525Z" fill="#3D3A2C"/>
</svg>
