<svg width="16" height="16" viewBox="0 0 16 16" fill="none" xmlns="http://www.w3.org/2000/svg">
<path d="M8.00382 0.00756836C5.88506 0.00756836 3.8531 0.849216 2.3549 2.34733C0.856784 3.84553 0.0151367 5.87752 0.0151367 7.99625C0.0151367 10.115 0.856784 12.147 2.3549 13.6452C3.8531 15.1433 5.88509 15.9849 8.00382 15.9849C10.1225 15.9849 12.1545 15.1433 13.6527 13.6452C15.1508 12.147 15.9925 10.115 15.9925 7.99625C15.9925 6.59397 15.6234 5.2164 14.9222 4.00195C14.2211 2.78751 13.2126 1.77906 11.9982 1.07792C10.7838 0.376778 9.40619 0.00765967 8.00391 0.00765967L8.00382 0.00756836ZM13.9233 3.46929H11.3137C11.0083 2.43932 10.453 1.50078 9.69731 0.737254C11.38 1.13063 12.8739 2.09638 13.9232 3.46929H13.9233ZM0.5478 8.26244H4.00952C4.02545 9.5229 4.20436 10.776 4.54209 11.9905H1.7141C0.998235 10.8748 0.595336 9.58721 0.5478 8.26244V8.26244ZM8.2701 3.46929V0.56677C9.25798 0.737241 10.1341 1.84494 10.7306 3.46929H8.2701ZM10.9063 4.00186C11.2614 5.21336 11.4496 6.46752 11.4655 7.72987H8.2701V4.00186H10.9063ZM7.73768 0.566617V3.46914H5.27714C5.87368 1.84479 6.74981 0.737101 7.73768 0.566617ZM7.73768 4.00186V7.72987H4.54225C4.55818 6.46752 4.74636 5.21336 5.10145 4.00186H7.73768ZM4.00967 7.72987H0.547953C0.595504 6.4051 0.998387 5.11753 1.71426 4.00186H4.54225C4.2045 5.21631 4.02559 6.46941 4.00967 7.72987ZM4.54225 8.26244H7.73768V11.9905H5.10145C4.74636 10.779 4.55816 9.52479 4.54225 8.26244ZM7.73768 12.523V15.4255C6.74981 15.2551 5.87368 14.1474 5.27714 12.523H7.73768ZM8.27025 15.4255V12.523H10.7308C10.1343 14.1474 9.25813 15.2551 8.27025 15.4255ZM8.27025 11.9903V8.26229H11.4657C11.4498 9.52464 11.2616 10.7788 10.9065 11.9903H8.27025ZM11.9983 8.26229H15.46C15.4145 9.58587 15.0154 10.8731 14.3042 11.9903H11.479C11.8122 10.7752 11.9867 9.52214 11.9982 8.26229H11.9983ZM11.9983 7.72972C11.9876 6.46996 11.814 5.21689 11.4816 4.00171H14.2963C15.0101 5.1181 15.4119 6.40541 15.46 7.72972H11.9983ZM6.31039 0.737193C5.55468 1.50075 4.99941 2.43929 4.69401 3.46923H2.08441C3.13385 2.09632 4.62767 1.13054 6.3103 0.737193H6.31039ZM2.0845 12.5229H4.69411C4.9995 13.5528 5.55477 14.4914 6.31048 15.2549C4.62776 14.8615 3.13391 13.8958 2.08459 12.5229H2.0845ZM9.69755 15.2549C10.4533 14.4914 11.0085 13.5528 11.3139 12.5229H13.9235C12.8741 13.8958 11.3803 14.8616 9.69764 15.2549H9.69755Z" fill="#5D8906"/>
</svg>
