<svg width="24" height="24" viewBox="0 0 24 24" fill="none" xmlns="http://www.w3.org/2000/svg">
<path d="M21.0686 6H3.93137C3.41699 6 3 6.33579 3 6.75C3 7.16421 3.41699 7.5 3.93137 7.5H21.0686C21.583 7.5 22 7.16421 22 6.75C22 6.33579 21.583 6 21.0686 6Z" fill="white"/>
<path d="M21.0686 11.5H3.93137C3.41699 11.5 3 11.8358 3 12.25C3 12.6642 3.41699 13 3.93137 13H21.0686C21.583 13 22 12.6642 22 12.25C22 11.8358 21.583 11.5 21.0686 11.5Z" fill="white"/>
<path d="M21.0686 17H3.93137C3.41699 17 3 17.3358 3 17.75C3 18.1642 3.41699 18.5 3.93137 18.5H21.0686C21.583 18.5 22 18.1642 22 17.75C22 17.3358 21.583 17 21.0686 17Z" fill="white"/>
</svg>
