<svg width="31" height="31" viewBox="0 0 31 31" fill="none" xmlns="http://www.w3.org/2000/svg">
<path d="M11.3971 19.6056C11.4962 19.7048 11.6203 19.7544 11.7443 19.7544C11.8684 19.7544 11.9924 19.7048 12.0915 19.6056L19.6307 12.0664C19.8291 11.868 19.8291 11.5705 19.6307 11.372C19.4323 11.1736 19.1348 11.1736 18.9363 11.372L11.3971 18.9112C11.1987 19.1097 11.1987 19.4072 11.3971 19.6056H11.3971Z" fill="#C2F756"/>
<path d="M7.65226 22.011L8.99137 23.3502C9.51226 23.871 10.2066 24.1686 10.9505 24.1686C11.6945 24.1686 12.3889 23.871 12.9096 23.3502L15.3152 20.9446C16.1336 20.1262 16.3568 18.8862 15.8608 17.8198C15.7368 17.5717 15.464 17.4726 15.1911 17.5717C14.9431 17.6958 14.844 17.9686 14.9431 18.2414C15.2655 18.911 15.1168 19.7295 14.5959 20.2501L12.1903 22.6557C11.8431 23.0029 11.3966 23.1766 10.9255 23.1766C10.4543 23.1766 10.008 23.0029 9.66078 22.6557L8.32166 21.3166C7.97447 20.9694 7.80078 20.5229 7.80078 20.0519C7.80078 19.5806 7.97446 19.1343 8.32166 18.7871L10.7273 16.3815C11.2482 15.8606 12.0417 15.7119 12.736 16.0343C12.9841 16.1583 13.2816 16.0343 13.4057 15.7862C13.5297 15.5382 13.4057 15.2406 13.1576 15.1166C12.116 14.6206 10.8513 14.8438 10.0328 15.6622L7.62724 18.0678C7.10635 18.5887 6.80884 19.283 6.80884 20.0269C6.80901 20.771 7.13129 21.4901 7.65217 22.011L7.65226 22.011Z" fill="#C2F756"/>
<path d="M23.3755 8.96647L22.0364 7.62736C21.5155 7.10647 20.8211 6.80896 20.0773 6.80896C19.3332 6.80896 18.6389 7.10651 18.1182 7.62736L15.7124 10.033C14.894 10.8514 14.6708 12.0914 15.1668 13.1577C15.2908 13.4058 15.5884 13.5049 15.8364 13.4058C16.0845 13.2818 16.1836 13.0089 16.0845 12.7361C15.762 12.0665 15.9108 11.2481 16.4317 10.7274L18.8373 8.32179C19.1845 7.9746 19.631 7.8009 20.102 7.8009C20.5733 7.8009 21.0196 7.97458 21.3668 8.32179L22.7059 9.6609C23.0531 10.0081 23.2268 10.4546 23.2268 10.9257C23.2268 11.3969 23.0531 11.8432 22.7059 12.1904L20.3003 14.596C19.7794 15.1169 18.9859 15.2657 18.2916 14.9432C18.0435 14.8192 17.746 14.9432 17.6219 15.1913C17.4979 15.4393 17.6219 15.7369 17.87 15.8609C18.2419 16.0346 18.6387 16.109 19.0356 16.109C19.7547 16.109 20.474 15.8362 20.9947 15.2906L23.4003 12.885C23.9212 12.3641 24.2187 11.6697 24.2187 10.9259C24.2187 10.1818 23.8964 9.48747 23.3755 8.96659L23.3755 8.96647Z" fill="#C2F756"/>
</svg>
