<svg width="87" height="24" viewBox="0 0 87 24" fill="none" xmlns="http://www.w3.org/2000/svg">
<g clip-path="url(#clip0_94_2247)">
<path d="M0 24L6.96152 9.19045L14.8212 23.2986L25.3035 0" fill="#090C08"/>
<path d="M26.8309 21.7029V8.79492H29.8373L34.336 20.7248H34.5757V8.79492H36.1052V21.7029H33.0988L28.6176 9.75547H28.3604V21.7029H26.8309Z" fill="#090C08"/>
<path d="M37.8042 21.7029L41.7867 8.79688H44.5163L48.4988 21.7029H46.8953L45.8997 18.4394H40.4053L39.4097 21.7029H37.8061H37.8042ZM40.791 17.0385H45.4925L43.2791 9.73794H43.0219L40.791 17.0385Z" fill="#090C08"/>
<path d="M54.4004 21.96C53.4418 21.96 52.6059 21.7886 51.8928 21.4437C51.1797 21.0989 50.6264 20.5864 50.2328 19.9045C49.8392 19.2226 49.6425 18.3828 49.6425 17.3872V8.79492H51.1719V17.4048C51.1719 18.4627 51.4544 19.2557 52.0195 19.7837C52.5845 20.3117 53.3775 20.5767 54.3984 20.5767C55.4194 20.5767 56.2124 20.3117 56.7774 19.7837C57.3424 19.2557 57.6249 18.4627 57.6249 17.4048V8.79492H59.1739V17.3872C59.1739 18.3828 58.9771 19.2226 58.5835 19.9045C58.1899 20.5864 57.6347 21.1008 56.9157 21.4437C56.1968 21.7886 55.357 21.96 54.3984 21.96H54.4004Z" fill="#090C08"/>
<path d="M61.5334 21.7029V8.79492H66.7511C67.5499 8.79492 68.2533 8.93326 68.8612 9.20992C69.4691 9.48659 69.9464 9.88016 70.2894 10.3906C70.6342 10.9011 70.8057 11.5129 70.8057 12.226V12.4286C70.8057 13.2762 70.603 13.9464 70.1978 14.4393C69.7925 14.9303 69.3132 15.2635 68.7599 15.435V15.6941C69.2022 15.7058 69.5685 15.85 69.8568 16.1266C70.1452 16.4033 70.2894 16.8183 70.2894 17.3716V21.7048H68.7599V17.5567C68.7599 17.1885 68.6586 16.906 68.4559 16.7092C68.2533 16.5124 67.9494 16.415 67.5441 16.415H63.0823V21.7068H61.5334V21.7029ZM63.0823 15.0102H66.603C67.4506 15.0102 68.1052 14.8037 68.567 14.3926C69.0288 13.9815 69.2587 13.4067 69.2587 12.6683V12.5397C69.2587 11.8013 69.0307 11.2284 68.5767 10.8154C68.1228 10.4043 67.4642 10.1977 66.603 10.1977H63.0823V15.0102Z" fill="#090C08"/>
<path d="M72.7657 21.7029V8.79492H74.3147V21.7029H72.7657Z" fill="#090C08"/>
<path d="M76.0643 21.7029L80.2319 15.1934L76.1208 8.79492H77.9465L81.2275 14.1237H81.4672L84.7677 8.79492H86.5738L82.4803 15.1934L86.6479 21.7029H84.8417L81.4672 16.263H81.2275L77.8724 21.7029H76.0663H76.0643Z" fill="#090C08"/>
</g>
<defs>
<clipPath id="clip0_94_2247">
<rect width="86.6478" height="24" fill="white"/>
</clipPath>
</defs>
</svg>
