<svg width="116" height="32" viewBox="0 0 116 32" fill="none" xmlns="http://www.w3.org/2000/svg">
<g clip-path="url(#clip0_94_2501)">
<path d="M0 32L9.28203 12.2539L19.7617 31.0648L33.7379 0" fill="#C2F756"/>
<path d="M35.7747 28.9371V11.7266H39.7831L45.7815 27.633H46.101V11.7266H48.1403V28.9371H44.1319L38.1569 13.0073H37.8139V28.9371H35.7747Z" fill="white"/>
<path d="M50.4056 28.9372L55.7155 11.7292H59.3551L64.665 28.9372H62.527L61.1995 24.5859H53.8737L52.5462 28.9372H50.4082H50.4056ZM54.388 22.718H60.6566L57.7055 12.984H57.3626L54.388 22.718Z" fill="white"/>
<path d="M72.5338 29.2801C71.2557 29.2801 70.1412 29.0515 69.1904 28.5916C68.2396 28.1318 67.5018 27.4486 66.9771 26.5394C66.4523 25.6301 66.1899 24.5105 66.1899 23.183V11.7266H68.2292V23.2063C68.2292 24.617 68.6059 25.6743 69.3593 26.3783C70.1127 27.0823 71.17 27.4356 72.5312 27.4356C73.8925 27.4356 74.9498 27.0823 75.7032 26.3783C76.4565 25.6743 76.8332 24.617 76.8332 23.2063V11.7266H78.8985V23.183C78.8985 24.5105 78.6361 25.6301 78.1114 26.5394C77.5866 27.4486 76.8462 28.1344 75.8876 28.5916C74.929 29.0515 73.8094 29.2801 72.5312 29.2801H72.5338Z" fill="white"/>
<path d="M82.0445 28.9372V11.7266H89.0015C90.0666 11.7266 91.0044 11.911 91.8149 12.2799C92.6254 12.6488 93.2619 13.1736 93.7191 13.8542C94.1789 14.5348 94.4075 15.3505 94.4075 16.3013V16.5715C94.4075 17.7016 94.1374 18.5952 93.597 19.2525C93.0567 19.9071 92.4176 20.3513 91.6798 20.5799V20.9255C92.2695 20.941 92.7579 21.1333 93.1424 21.5022C93.5269 21.8711 93.7191 22.4244 93.7191 23.1622V28.9397H91.6798V23.409C91.6798 22.918 91.5447 22.5413 91.2746 22.2789C91.0044 22.0165 90.5991 21.8867 90.0588 21.8867H84.1098V28.9423H82.0445V28.9372ZM84.1098 20.0136H88.804C89.9341 20.0136 90.807 19.7383 91.4226 19.1901C92.0383 18.642 92.3449 17.8756 92.3449 16.891V16.7196C92.3449 15.735 92.0409 14.9712 91.4356 14.4205C90.8303 13.8724 89.9523 13.597 88.804 13.597H84.1098V20.0136Z" fill="white"/>
<path d="M97.0209 28.9371V11.7266H99.0862V28.9371H97.0209Z" fill="white"/>
<path d="M101.419 28.9371L106.976 20.2578L101.494 11.7266H103.929L108.303 18.8316H108.623L113.024 11.7266H115.432L109.974 20.2578L115.53 28.9371H113.122L108.623 21.684H108.303L103.83 28.9371H101.422H101.419Z" fill="white"/>
</g>
<defs>
<clipPath id="clip0_94_2501">
<rect width="115.53" height="32" fill="white"/>
</clipPath>
</defs>
</svg>
