<svg width="40" height="40" viewBox="0 0 40 40" fill="none" xmlns="http://www.w3.org/2000/svg">
<path d="M5.78848 29.005H34.341C34.9934 29.005 35.5306 28.4674 35.5306 27.8146V9.19035C35.5306 8.53757 34.9934 8 34.341 8H5.78848C5.13611 8 4.59886 8.53759 4.59886 9.19035V27.8146C4.56058 28.4674 5.09785 29.005 5.78848 29.005ZM5.48143 9.19028C5.48143 9.03679 5.63482 8.88304 5.78848 8.88304H34.341C34.4944 8.88304 34.6481 9.03653 34.6481 9.19028V27.8146C34.6481 27.968 34.4947 28.1218 34.341 28.1218L5.78848 28.1215C5.63509 28.1215 5.48143 27.968 5.48143 27.8143V9.19028ZM37.9868 30.8482H1.98912C1.68207 30.8482 1.41357 31.1171 1.41357 31.4241C1.41357 31.7313 1.68234 32 1.98912 32H37.9868C38.2938 32 38.5623 31.7311 38.5623 31.4241C38.5623 31.1169 38.3321 30.8482 37.9865 30.8482H37.9868ZM17.2632 20.2496L14.001 18.2527L17.2632 16.2558V15.219L12.85 17.9069V18.598L17.2632 21.286V20.2496ZM22.3288 14.1054H21.3311L17.7622 22.8607H18.7599L22.3288 14.1054ZM27.2411 17.9071L22.8279 15.2192V16.2561L26.09 18.253L22.8279 20.2499V21.2867L27.2411 18.5988V17.9071Z" fill="#C2F756"/>
</svg>
