<svg width="40" height="40" viewBox="0 0 40 40" fill="none" xmlns="http://www.w3.org/2000/svg">
<g clip-path="url(#clip0_94_2466)">
<path d="M35.9676 9.88599H31.9717C31.4082 9.88599 30.9494 10.3448 30.9494 10.9083V14.9042C30.9494 15.4677 31.4082 15.9265 31.9717 15.9265H35.9676C36.5311 15.9265 36.99 15.4677 36.99 14.9042V10.9083C36.99 10.3445 36.5315 9.88599 35.9676 9.88599ZM35.8929 14.8292H32.0468V10.9831H35.8929V14.8292Z" fill="#C2F756"/>
<path d="M36.9552 7.00001H4.77188C3.16501 7.00001 1.85821 8.30751 1.85821 9.91368V15.8974C1.85821 17.5049 3.16501 18.8121 4.77188 18.8121H16.3091V23.7201C15.8527 23.9967 15.4432 24.3449 15.1035 24.7542L1.09732 24.7545V23.489H-6.10352e-05V32.0222H1.09732V30.0579H14.5745C15.3815 31.5528 16.9625 32.571 18.7774 32.571C21.4093 32.571 23.5504 30.4299 23.5504 27.798C23.5504 26.0706 22.6245 24.5585 21.2464 23.7204V18.8124H36.9553C38.5628 18.8124 39.8701 17.5049 39.8701 15.8977V9.91367C39.8701 8.30751 38.5626 7 36.9553 7L36.9552 7.00001ZM14.1532 28.9608H1.09749V25.8522H14.423C14.156 26.447 14.0041 27.1049 14.0041 27.7982C14.0038 28.1999 14.0589 28.5881 14.1533 28.9608H14.1532ZM22.4533 27.7982C22.4533 29.8246 20.8048 31.4739 18.7777 31.4739C16.7503 31.4739 15.1011 29.8247 15.1011 27.7982C15.1011 25.7709 16.7503 24.1217 18.7777 24.1217C20.8047 24.1217 22.4533 25.7709 22.4533 27.7982ZM17.4061 23.2278V18.8127H20.1493V23.2278C19.7142 23.0969 19.2544 23.0242 18.7777 23.0242C18.3009 23.0242 17.8411 23.0969 17.4061 23.2278H17.4061ZM28.6982 17.7152H4.77197C3.7707 17.7152 2.95567 16.8996 2.95567 15.898L2.95533 9.91395C2.95533 8.91198 3.77029 8.09765 4.77162 8.09765H28.6979C28.2952 8.5971 28.0441 9.22395 28.0441 9.91395V15.8976C28.0441 16.5893 28.2952 17.2148 28.6982 17.7152H28.6982ZM38.7726 15.898C38.7726 16.9 37.957 17.7152 36.9553 17.7152H30.9585C29.9565 17.7152 29.1413 16.8996 29.1413 15.898V9.91395C29.1413 8.91198 29.9569 8.09765 30.9585 8.09765H36.9553C37.9573 8.09765 38.7726 8.91192 38.7726 9.91395V15.898Z" fill="#C2F756"/>
</g>
<defs>
<clipPath id="clip0_94_2466">
<rect width="40" height="40" fill="white"/>
</clipPath>
</defs>
</svg>
