<svg width="40" height="40" viewBox="0 0 40 40" fill="none" xmlns="http://www.w3.org/2000/svg">
<path d="M26.8519 19.1544C27.0943 19.1544 27.3367 18.9604 27.3367 18.6696V14.6939C27.3367 14.4515 27.1427 14.2091 26.8519 14.2091H13.1793C12.9369 14.2091 12.6945 14.4031 12.6945 14.6939V18.6696C12.6945 18.912 12.8884 19.1544 13.1793 19.1544H13.9065V20.8513H13.1793C12.9369 20.8513 12.6945 21.0452 12.6945 21.3361V25.3117C12.6945 25.5542 12.8884 25.7966 13.1793 25.7966H26.8519C27.0943 25.7966 27.3367 25.6026 27.3367 25.3117V21.3361C27.3367 21.0937 27.1427 20.8513 26.8519 20.8513H26.1246V19.1544H26.8519ZM23.8943 16.1968C24.1851 16.1968 24.3791 16.3908 24.3791 16.6816C24.3791 16.924 24.1851 17.1665 23.8943 17.1665C23.6518 17.1665 23.4094 16.9725 23.4094 16.6816C23.4094 16.4394 23.6034 16.1968 23.8943 16.1968ZM22.6336 16.1968C22.9244 16.1968 23.1184 16.3908 23.1184 16.6816C23.1184 16.924 22.9244 17.1665 22.6336 17.1665C22.3912 17.1665 22.1487 16.9725 22.1487 16.6816C22.1487 16.4394 22.3427 16.1968 22.6336 16.1968ZM15.5061 16.1968H19.4334C19.6758 16.1968 19.9182 16.3908 19.9182 16.6816C19.9182 16.924 19.7242 17.1665 19.4334 17.1665H15.5061C15.2637 17.1665 15.0213 16.9725 15.0213 16.6816C15.0213 16.4394 15.2637 16.1968 15.5061 16.1968ZM14.8273 19.1544H25.2028V20.8513L14.8273 20.8515V19.1544ZM19.4333 23.712H15.5061C15.2637 23.712 15.0213 23.518 15.0213 23.2272C15.0213 22.9848 15.2152 22.7424 15.5061 22.7424H19.4333C19.6758 22.7424 19.9182 22.9363 19.9182 23.2272C19.8697 23.518 19.676 23.712 19.4333 23.712ZM22.6333 23.712C22.3909 23.712 22.1485 23.518 22.1485 23.2272C22.1485 22.9848 22.3425 22.7424 22.5849 22.7424H22.6333C22.8757 22.7424 23.1182 22.9363 23.1182 23.2272C23.1184 23.518 22.9244 23.712 22.6333 23.712H22.6333ZM23.894 23.712C23.6516 23.712 23.4092 23.518 23.4092 23.2272C23.4092 22.9848 23.6032 22.7424 23.8456 22.7424H23.894C24.1364 22.7424 24.3788 22.9363 24.3788 23.2272C24.3788 23.518 24.1849 23.712 23.894 23.712H23.894ZM25.1545 23.712C24.9121 23.712 24.6697 23.518 24.6697 23.2272C24.6697 22.9848 24.8637 22.7424 25.1061 22.7424H25.1545C25.3969 22.7424 25.6394 22.9363 25.6394 23.2272C25.6396 23.518 25.4456 23.712 25.1545 23.712H25.1545ZM25.1545 17.1669C24.9121 17.1669 24.6697 16.9729 24.6697 16.682C24.6697 16.4396 24.8637 16.1972 25.1061 16.1972H25.1545C25.3969 16.1972 25.6394 16.3912 25.6394 16.682C25.6396 16.9729 25.4456 17.1669 25.1545 17.1669H25.1545Z" fill="#C2F756"/>
<path d="M28.6941 33.0213C28.6941 33.991 27.8698 34.8153 26.9001 34.8153C26.0758 34.8153 25.397 34.2821 25.2033 33.5062H21.7609C21.5185 33.5062 21.2761 33.3122 21.2761 33.0213V26.6699H22.1973V32.5854H25.1549C25.3488 31.8097 26.0761 31.2278 26.9004 31.2278C27.9185 31.2278 28.6942 32.0036 28.6942 33.0217L28.6941 33.0213Z" fill="#C2F756"/>
<path d="M11.6759 16.3424V17.2636H6.24551C6.0031 17.2636 5.76069 17.0696 5.76069 16.7788V13.3364C5.03326 13.1908 4.5 12.4636 4.5 11.6879C4.5 10.7183 5.32434 9.89392 6.294 9.89392C7.26366 9.89392 8.088 10.7183 8.088 11.6879C8.088 12.5123 7.50606 13.2395 6.7304 13.4335V16.3911L11.6759 16.3908L11.6759 16.3424Z" fill="#C2F756"/>
<path d="M6.73064 23.6635V26.5727C7.5063 26.7666 8.08824 27.4939 8.08824 28.3182C8.08824 29.2879 7.2639 30.1122 6.29424 30.1122C5.32459 30.1122 4.50024 29.2879 4.50024 28.3182C4.50024 27.4939 5.0335 26.8151 5.80939 26.5727V23.1787C5.80939 22.9363 6.00336 22.6938 6.29421 22.6938H11.7246V23.615H6.73055L6.73064 23.6635Z" fill="#C2F756"/>
<path d="M18.609 6.93662V13.2881H17.6878V7.4212H14.7786C14.5846 8.19685 13.8574 8.7788 13.0331 8.7788C12.0634 8.7788 11.2391 7.95445 11.2391 6.9848C11.2391 6.01514 12.0634 5.1908 13.0331 5.1908C13.8574 5.1908 14.5362 5.72405 14.7786 6.49994H18.1726C18.3666 6.4515 18.609 6.64548 18.609 6.93632L18.609 6.93662Z" fill="#C2F756"/>
<path d="M28.6941 6.93663C28.6941 7.90629 27.8698 8.73063 26.9001 8.73063C26.0758 8.73063 25.3486 8.14869 25.1546 7.37303H22.197V13.2885H21.2758L21.276 6.93703C21.276 6.69462 21.47 6.45221 21.7608 6.45221H25.2032C25.3972 5.72495 26.1244 5.14307 26.9001 5.14307C27.9183 5.14307 28.6941 5.96741 28.6941 6.93707L28.6941 6.93663Z" fill="#C2F756"/>
<path d="M18.609 26.6697V33.0212C18.609 33.2636 18.415 33.506 18.1242 33.506H14.7302C14.5362 34.2817 13.809 34.8151 12.9846 34.8151C12.015 34.8151 11.1906 33.9908 11.1906 33.0211C11.1906 32.0515 12.015 31.2271 12.9846 31.2271C13.809 31.2271 14.5362 31.8091 14.7302 32.5847H17.6393V26.6693L18.609 26.6697Z" fill="#C2F756"/>
<path d="M35.5307 28.2699C35.5307 29.2395 34.7064 30.0639 33.7367 30.0639C32.7671 30.0639 31.9427 29.2395 31.9427 28.2699C31.9427 27.4455 32.5247 26.7183 33.3003 26.5243V23.6152L28.2095 23.6154V22.6942H33.7851C34.0275 22.6942 34.27 22.8882 34.27 23.179V26.573C34.9974 26.767 35.5306 27.4458 35.5306 28.2699L35.5307 28.2699Z" fill="#C2F756"/>
<path d="M35.5307 11.6882C35.5307 12.5125 34.9974 13.1913 34.2216 13.385V16.8274C34.2216 17.0699 34.0276 17.3123 33.7367 17.3123H28.2095V16.3911H33.3003V13.4335C32.5247 13.2395 31.9427 12.5123 31.9427 11.6879C31.9427 10.7183 32.7671 9.89392 33.7367 9.89392C34.7064 9.89414 35.5307 10.6698 35.5307 11.6881L35.5307 11.6882Z" fill="#C2F756"/>
</svg>
