<svg width="40" height="40" viewBox="0 0 40 40" fill="none" xmlns="http://www.w3.org/2000/svg">
<mask id="path-1-outside-1_94_2425" maskUnits="userSpaceOnUse" x="3.71423" y="3.41431" width="32" height="33" fill="black">
<rect fill="white" x="3.71423" y="3.41431" width="32" height="33"/>
<path d="M22.9061 14.4941C21.8197 14.4903 20.7721 14.8986 19.9748 15.6365C18.8534 14.62 17.282 14.2647 15.8324 14.6995C14.3827 15.1343 13.2664 16.296 12.8896 17.7618C12.5128 19.2276 12.9306 20.7837 13.9909 21.8638L19.2259 27.0988C19.4255 27.3015 19.6969 27.4165 19.9813 27.4189C20.2657 27.418 20.5378 27.3026 20.7364 27.0988L25.9556 21.8734C26.7677 21.0636 27.2246 19.9643 27.2255 18.8174C27.2264 17.6708 26.7713 16.5708 25.9603 15.7598C25.1496 14.9487 24.0496 14.4935 22.9027 14.4942L22.9061 14.4941ZM25.2773 21.1953L20.0547 26.4207C20.0128 26.4609 19.9465 26.4609 19.9045 26.4207L14.6724 21.1888C14.0172 20.5644 13.6414 19.7021 13.6302 18.7972C13.6193 17.8923 13.9735 17.0211 14.6135 16.3809C15.2532 15.7408 16.1242 15.3856 17.0291 15.3961C17.934 15.4066 18.7965 15.7819 19.4212 16.4368L19.6357 16.6513L19.6355 16.6511C19.8264 16.8298 20.1232 16.8298 20.3141 16.6511L20.5253 16.4399C21.3746 15.591 22.6123 15.2598 23.7723 15.5709C24.9322 15.8823 25.8378 16.7886 26.1482 17.9486C26.4587 19.1086 26.1266 20.3461 25.2773 21.195L25.2773 21.1953ZM34.7813 18.5424C35.1927 17.9734 35.34 17.2551 35.1858 16.57C35.0315 15.885 34.5904 15.2993 33.9748 14.9616L33.2965 14.5904C33.0231 14.4404 32.8039 14.2082 32.6695 13.927C32.5351 13.6457 32.4925 13.3292 32.5476 13.0223L32.6851 12.2607H32.6853C32.7108 12.1172 32.7237 11.9714 32.7237 11.8257C32.7237 11.1986 32.4829 10.5959 32.0511 10.1415C31.6194 9.68703 31.0295 9.41583 30.4036 9.38389L29.6292 9.34237C29.3179 9.32608 29.0196 9.21224 28.7768 9.01692C28.5337 8.82161 28.3585 8.55487 28.2757 8.25441L28.0676 7.52161C27.8784 6.84795 27.41 6.28744 26.7806 5.98167C26.1514 5.67586 25.4212 5.65399 24.7748 5.92162L24.0612 6.21916C23.7737 6.33948 23.4556 6.36671 23.1518 6.29662C22.8482 6.22653 22.5742 6.06292 22.3683 5.82876L21.8563 5.24642H21.8565C21.3929 4.71896 20.725 4.41585 20.0228 4.41431C19.3232 4.41431 18.657 4.71364 18.1924 5.23688L17.6643 5.80962C17.4578 6.04243 17.1833 6.20471 16.8795 6.27302C16.5757 6.34132 16.2581 6.31252 15.9717 6.19043L15.2581 5.88954C14.6117 5.61498 13.8782 5.63128 13.2447 5.93418C12.611 6.2373 12.138 6.79801 11.946 7.47366L11.7349 8.21921C11.6494 8.51832 11.4721 8.78305 11.228 8.97589C10.984 9.16875 10.6855 9.28013 10.3748 9.29442L9.60047 9.33281C8.97189 9.36071 8.37835 9.63035 7.94378 10.0853C7.50918 10.5402 7.26698 11.1453 7.26766 11.7744C7.26722 11.9159 7.27905 12.0572 7.30271 12.1967L7.43731 12.9616C7.49021 13.2686 7.44534 13.5844 7.30941 13.8646C7.17325 14.1447 6.95271 14.3751 6.67883 14.5232L6.00049 14.8815C5.38061 15.2159 4.93489 15.8007 4.77683 16.4869C4.61858 17.173 4.76366 17.894 5.17482 18.4657L5.62594 19.1056C5.80808 19.3587 5.90607 19.6625 5.90607 19.9744C5.90607 20.2862 5.80808 20.59 5.62594 20.8431L5.17147 21.483L5.1717 21.4833C4.76902 22.0502 4.62638 22.7616 4.77973 23.44C4.93286 24.1183 5.36745 24.6996 5.97482 25.0384L6.65316 25.4096C6.92682 25.5592 7.14646 25.7911 7.28082 26.0726C7.41542 26.3541 7.45761 26.6708 7.40202 26.9775L7.26453 27.7391H7.2643C7.23886 27.8829 7.22591 28.0284 7.22591 28.1744C7.22591 28.8012 7.46676 29.4041 7.89848 29.8585C8.33018 30.3128 8.92014 30.584 9.54602 30.6161L10.3204 30.6577C10.6313 30.6737 10.9293 30.7871 11.1721 30.9818C11.415 31.1764 11.5907 31.4425 11.6739 31.7425L11.882 32.4815C12.0712 33.1552 12.5396 33.7157 13.169 34.0215C13.7982 34.3273 14.5284 34.3492 15.1748 34.0815L15.8884 33.784C16.1759 33.6637 16.494 33.6364 16.7978 33.7065C17.1014 33.7766 17.3754 33.9402 17.5813 34.1744L18.0933 34.7567H18.0931C18.5567 35.2842 19.2246 35.5873 19.9268 35.5888C20.6264 35.5888 21.2926 35.2895 21.7572 34.7663L22.2723 34.187C22.479 33.9542 22.7536 33.7921 23.0574 33.7236C23.3612 33.6553 23.6788 33.6843 23.9652 33.8064L24.6788 34.1073V34.1071C25.3252 34.3819 26.0585 34.3656 26.6922 34.0625C27.3259 33.7593 27.7988 33.1989 27.9908 32.5231L28.202 31.7776V31.7774C28.2897 31.4778 28.4694 31.2133 28.7158 31.0216C28.9623 30.8298 29.2627 30.7202 29.5748 30.7086L30.3491 30.6733V30.6736C30.9774 30.6445 31.5703 30.3749 32.0049 29.9202C32.4393 29.4655 32.682 28.8608 32.682 28.2318C32.6824 28.0903 32.6706 27.949 32.6469 27.8095L32.5092 27.0414C32.4563 26.7345 32.5009 26.4187 32.6371 26.1385C32.7733 25.8584 32.9938 25.628 33.2677 25.4798L33.9492 25.1216C34.569 24.7872 35.0148 24.2024 35.1728 23.5162C35.3311 22.83 35.186 22.109 34.7748 21.5374L34.3237 20.8974C34.1416 20.6443 34.0436 20.3405 34.0436 20.0287C34.0436 19.7169 34.1416 19.4131 34.3237 19.16L34.7813 18.5424ZM34.0036 17.9792L33.5492 18.6191C33.2501 19.0354 33.0889 19.5352 33.0889 20.0479C33.0889 20.5607 33.2501 21.0605 33.5492 21.4767L34.0003 22.1167H34.0005C34.1811 22.3674 34.2784 22.6685 34.2789 22.9774C34.2793 23.2463 34.207 23.5102 34.0695 23.7412C33.932 23.9722 33.7347 24.1617 33.498 24.2894L32.8163 24.6575C32.367 24.9004 32.005 25.2778 31.7811 25.737C31.5574 26.1961 31.4829 26.714 31.5684 27.2176L31.6996 27.9792C31.7146 28.0646 31.7219 28.1515 31.7219 28.2383C31.7217 28.6202 31.5742 28.9872 31.3101 29.2631C31.046 29.539 30.686 29.7026 30.3045 29.7198L29.5302 29.7551H29.5299C29.0177 29.7792 28.5257 29.9636 28.1239 30.2821C27.7219 30.6008 27.4302 31.0377 27.29 31.5312L27.0788 32.2767C26.9614 32.6868 26.6737 33.0267 26.2889 33.2104C25.9038 33.3939 25.4585 33.4035 25.0661 33.2368L24.3525 32.9359C23.8796 32.7365 23.3559 32.691 22.8555 32.806C22.3552 32.9207 21.9039 33.1901 21.5653 33.5759L21.0501 34.1551C20.7673 34.4732 20.3619 34.6549 19.9365 34.6544C19.5099 34.6531 19.1046 34.4692 18.8229 34.1486L18.3109 33.5663C17.9722 33.1817 17.5214 32.9129 17.022 32.7982C16.5224 32.6833 15.9994 32.7281 15.5269 32.9264L14.8133 33.2239C14.4216 33.3886 13.9781 33.3779 13.5946 33.1944C13.2111 33.011 12.9245 32.6723 12.8069 32.2641L12.5988 31.5186L12.599 31.5183C12.4609 31.023 12.17 30.5838 11.7678 30.2632C11.3658 29.9426 10.8727 29.7569 10.3589 29.7328L9.58453 29.6913V29.6911C9.20418 29.6723 8.84567 29.5081 8.58299 29.2322C8.32026 28.9565 8.17361 28.5905 8.17339 28.2096C8.17316 28.1205 8.18053 28.0317 8.19571 27.944L8.3332 27.1824H8.33343C8.42383 26.6781 8.35352 26.158 8.13254 25.6957C7.91133 25.2335 7.55082 24.8524 7.10128 24.6065L6.43568 24.1967C6.06179 23.9913 5.79396 23.6353 5.70042 23.2192C5.60667 22.8029 5.69618 22.3665 5.94618 22.0208L6.40065 21.3808C6.69975 20.9645 6.86091 20.4648 6.86091 19.952C6.86091 19.4393 6.69975 18.9395 6.40065 18.5232L5.94953 17.8833H5.94931C5.70154 17.536 5.61471 17.0991 5.71069 16.6835C5.8069 16.2679 6.07676 15.9136 6.45178 15.7103L7.13349 15.3422V15.3425C7.58238 15.0992 7.94423 14.7217 8.16806 14.2626C8.39172 13.8036 8.46628 13.286 8.38146 12.7825L8.25021 12.0209C8.23525 11.9354 8.22788 11.8485 8.22788 11.7617C8.22811 11.3798 8.37565 11.0129 8.63971 10.7369C8.90378 10.461 9.26383 10.2974 9.64531 10.28L10.4197 10.2416H10.4199C10.9324 10.2182 11.4243 10.0338 11.8263 9.71503C12.2283 9.39651 12.5201 8.95921 12.6598 8.46572L12.871 7.72018V7.71995C12.9884 7.30991 13.2761 6.96995 13.6609 6.78624C14.046 6.60276 14.4913 6.59316 14.8837 6.76012L15.5973 7.06101V7.06079C16.0703 7.26035 16.5939 7.30566 17.0944 7.19092C17.5946 7.07597 18.0459 6.80655 18.3845 6.42081L18.8997 5.84155C19.1818 5.52101 19.5894 5.33887 20.0164 5.34244C20.4459 5.35093 20.8508 5.54445 21.127 5.87369L21.639 6.45604C21.9774 6.84108 22.4281 7.11004 22.9279 7.22478C23.4274 7.33973 23.9504 7.29465 24.423 7.09599L25.1366 6.79844C25.5283 6.63371 25.9718 6.64443 26.3553 6.82791C26.7388 7.01139 27.0254 7.35 27.143 7.75825L27.351 8.50379L27.3508 8.50402C27.4885 9 27.7789 9.43996 28.1812 9.76116C28.5834 10.0824 29.0767 10.2683 29.591 10.2929L30.3653 10.3344C30.7457 10.3533 31.1042 10.5176 31.3669 10.7933C31.6296 11.069 31.7763 11.435 31.7765 11.816C31.7767 11.9049 31.7693 11.9937 31.7542 12.0814L31.6167 12.843H31.6164C31.5263 13.348 31.5966 13.8682 31.8176 14.331C32.0388 14.7935 32.3993 15.1752 32.8486 15.4223L33.5269 15.7935C33.762 15.9254 33.9571 16.1185 34.0912 16.3524C34.2251 16.5861 34.2934 16.852 34.2885 17.1216C34.2863 17.4312 34.1867 17.7324 34.0037 17.9823L34.0036 17.9792Z"/>
</mask>
<path d="M22.9061 14.4941C21.8197 14.4903 20.7721 14.8986 19.9748 15.6365C18.8534 14.62 17.282 14.2647 15.8324 14.6995C14.3827 15.1343 13.2664 16.296 12.8896 17.7618C12.5128 19.2276 12.9306 20.7837 13.9909 21.8638L19.2259 27.0988C19.4255 27.3015 19.6969 27.4165 19.9813 27.4189C20.2657 27.418 20.5378 27.3026 20.7364 27.0988L25.9556 21.8734C26.7677 21.0636 27.2246 19.9643 27.2255 18.8174C27.2264 17.6708 26.7713 16.5708 25.9603 15.7598C25.1496 14.9487 24.0496 14.4935 22.9027 14.4942L22.9061 14.4941ZM25.2773 21.1953L20.0547 26.4207C20.0128 26.4609 19.9465 26.4609 19.9045 26.4207L14.6724 21.1888C14.0172 20.5644 13.6414 19.7021 13.6302 18.7972C13.6193 17.8923 13.9735 17.0211 14.6135 16.3809C15.2532 15.7408 16.1242 15.3856 17.0291 15.3961C17.934 15.4066 18.7965 15.7819 19.4212 16.4368L19.6357 16.6513L19.6355 16.6511C19.8264 16.8298 20.1232 16.8298 20.3141 16.6511L20.5253 16.4399C21.3746 15.591 22.6123 15.2598 23.7723 15.5709C24.9322 15.8823 25.8378 16.7886 26.1482 17.9486C26.4587 19.1086 26.1266 20.3461 25.2773 21.195L25.2773 21.1953ZM34.7813 18.5424C35.1927 17.9734 35.34 17.2551 35.1858 16.57C35.0315 15.885 34.5904 15.2993 33.9748 14.9616L33.2965 14.5904C33.0231 14.4404 32.8039 14.2082 32.6695 13.927C32.5351 13.6457 32.4925 13.3292 32.5476 13.0223L32.6851 12.2607H32.6853C32.7108 12.1172 32.7237 11.9714 32.7237 11.8257C32.7237 11.1986 32.4829 10.5959 32.0511 10.1415C31.6194 9.68703 31.0295 9.41583 30.4036 9.38389L29.6292 9.34237C29.3179 9.32608 29.0196 9.21224 28.7768 9.01692C28.5337 8.82161 28.3585 8.55487 28.2757 8.25441L28.0676 7.52161C27.8784 6.84795 27.41 6.28744 26.7806 5.98167C26.1514 5.67586 25.4212 5.65399 24.7748 5.92162L24.0612 6.21916C23.7737 6.33948 23.4556 6.36671 23.1518 6.29662C22.8482 6.22653 22.5742 6.06292 22.3683 5.82876L21.8563 5.24642H21.8565C21.3929 4.71896 20.725 4.41585 20.0228 4.41431C19.3232 4.41431 18.657 4.71364 18.1924 5.23688L17.6643 5.80962C17.4578 6.04243 17.1833 6.20471 16.8795 6.27302C16.5757 6.34132 16.2581 6.31252 15.9717 6.19043L15.2581 5.88954C14.6117 5.61498 13.8782 5.63128 13.2447 5.93418C12.611 6.2373 12.138 6.79801 11.946 7.47366L11.7349 8.21921C11.6494 8.51832 11.4721 8.78305 11.228 8.97589C10.984 9.16875 10.6855 9.28013 10.3748 9.29442L9.60047 9.33281C8.97189 9.36071 8.37835 9.63035 7.94378 10.0853C7.50918 10.5402 7.26698 11.1453 7.26766 11.7744C7.26722 11.9159 7.27905 12.0572 7.30271 12.1967L7.43731 12.9616C7.49021 13.2686 7.44534 13.5844 7.30941 13.8646C7.17325 14.1447 6.95271 14.3751 6.67883 14.5232L6.00049 14.8815C5.38061 15.2159 4.93489 15.8007 4.77683 16.4869C4.61858 17.173 4.76366 17.894 5.17482 18.4657L5.62594 19.1056C5.80808 19.3587 5.90607 19.6625 5.90607 19.9744C5.90607 20.2862 5.80808 20.59 5.62594 20.8431L5.17147 21.483L5.1717 21.4833C4.76902 22.0502 4.62638 22.7616 4.77973 23.44C4.93286 24.1183 5.36745 24.6996 5.97482 25.0384L6.65316 25.4096C6.92682 25.5592 7.14646 25.7911 7.28082 26.0726C7.41542 26.3541 7.45761 26.6708 7.40202 26.9775L7.26453 27.7391H7.2643C7.23886 27.8829 7.22591 28.0284 7.22591 28.1744C7.22591 28.8012 7.46676 29.4041 7.89848 29.8585C8.33018 30.3128 8.92014 30.584 9.54602 30.6161L10.3204 30.6577C10.6313 30.6737 10.9293 30.7871 11.1721 30.9818C11.415 31.1764 11.5907 31.4425 11.6739 31.7425L11.882 32.4815C12.0712 33.1552 12.5396 33.7157 13.169 34.0215C13.7982 34.3273 14.5284 34.3492 15.1748 34.0815L15.8884 33.784C16.1759 33.6637 16.494 33.6364 16.7978 33.7065C17.1014 33.7766 17.3754 33.9402 17.5813 34.1744L18.0933 34.7567H18.0931C18.5567 35.2842 19.2246 35.5873 19.9268 35.5888C20.6264 35.5888 21.2926 35.2895 21.7572 34.7663L22.2723 34.187C22.479 33.9542 22.7536 33.7921 23.0574 33.7236C23.3612 33.6553 23.6788 33.6843 23.9652 33.8064L24.6788 34.1073V34.1071C25.3252 34.3819 26.0585 34.3656 26.6922 34.0625C27.3259 33.7593 27.7988 33.1989 27.9908 32.5231L28.202 31.7776V31.7774C28.2897 31.4778 28.4694 31.2133 28.7158 31.0216C28.9623 30.8298 29.2627 30.7202 29.5748 30.7086L30.3491 30.6733V30.6736C30.9774 30.6445 31.5703 30.3749 32.0049 29.9202C32.4393 29.4655 32.682 28.8608 32.682 28.2318C32.6824 28.0903 32.6706 27.949 32.6469 27.8095L32.5092 27.0414C32.4563 26.7345 32.5009 26.4187 32.6371 26.1385C32.7733 25.8584 32.9938 25.628 33.2677 25.4798L33.9492 25.1216C34.569 24.7872 35.0148 24.2024 35.1728 23.5162C35.3311 22.83 35.186 22.109 34.7748 21.5374L34.3237 20.8974C34.1416 20.6443 34.0436 20.3405 34.0436 20.0287C34.0436 19.7169 34.1416 19.4131 34.3237 19.16L34.7813 18.5424ZM34.0036 17.9792L33.5492 18.6191C33.2501 19.0354 33.0889 19.5352 33.0889 20.0479C33.0889 20.5607 33.2501 21.0605 33.5492 21.4767L34.0003 22.1167H34.0005C34.1811 22.3674 34.2784 22.6685 34.2789 22.9774C34.2793 23.2463 34.207 23.5102 34.0695 23.7412C33.932 23.9722 33.7347 24.1617 33.498 24.2894L32.8163 24.6575C32.367 24.9004 32.005 25.2778 31.7811 25.737C31.5574 26.1961 31.4829 26.714 31.5684 27.2176L31.6996 27.9792C31.7146 28.0646 31.7219 28.1515 31.7219 28.2383C31.7217 28.6202 31.5742 28.9872 31.3101 29.2631C31.046 29.539 30.686 29.7026 30.3045 29.7198L29.5302 29.7551H29.5299C29.0177 29.7792 28.5257 29.9636 28.1239 30.2821C27.7219 30.6008 27.4302 31.0377 27.29 31.5312L27.0788 32.2767C26.9614 32.6868 26.6737 33.0267 26.2889 33.2104C25.9038 33.3939 25.4585 33.4035 25.0661 33.2368L24.3525 32.9359C23.8796 32.7365 23.3559 32.691 22.8555 32.806C22.3552 32.9207 21.9039 33.1901 21.5653 33.5759L21.0501 34.1551C20.7673 34.4732 20.3619 34.6549 19.9365 34.6544C19.5099 34.6531 19.1046 34.4692 18.8229 34.1486L18.3109 33.5663C17.9722 33.1817 17.5214 32.9129 17.022 32.7982C16.5224 32.6833 15.9994 32.7281 15.5269 32.9264L14.8133 33.2239C14.4216 33.3886 13.9781 33.3779 13.5946 33.1944C13.2111 33.011 12.9245 32.6723 12.8069 32.2641L12.5988 31.5186L12.599 31.5183C12.4609 31.023 12.17 30.5838 11.7678 30.2632C11.3658 29.9426 10.8727 29.7569 10.3589 29.7328L9.58453 29.6913V29.6911C9.20418 29.6723 8.84567 29.5081 8.58299 29.2322C8.32026 28.9565 8.17361 28.5905 8.17339 28.2096C8.17316 28.1205 8.18053 28.0317 8.19571 27.944L8.3332 27.1824H8.33343C8.42383 26.6781 8.35352 26.158 8.13254 25.6957C7.91133 25.2335 7.55082 24.8524 7.10128 24.6065L6.43568 24.1967C6.06179 23.9913 5.79396 23.6353 5.70042 23.2192C5.60667 22.8029 5.69618 22.3665 5.94618 22.0208L6.40065 21.3808C6.69975 20.9645 6.86091 20.4648 6.86091 19.952C6.86091 19.4393 6.69975 18.9395 6.40065 18.5232L5.94953 17.8833H5.94931C5.70154 17.536 5.61471 17.0991 5.71069 16.6835C5.8069 16.2679 6.07676 15.9136 6.45178 15.7103L7.13349 15.3422V15.3425C7.58238 15.0992 7.94423 14.7217 8.16806 14.2626C8.39172 13.8036 8.46628 13.286 8.38146 12.7825L8.25021 12.0209C8.23525 11.9354 8.22788 11.8485 8.22788 11.7617C8.22811 11.3798 8.37565 11.0129 8.63971 10.7369C8.90378 10.461 9.26383 10.2974 9.64531 10.28L10.4197 10.2416H10.4199C10.9324 10.2182 11.4243 10.0338 11.8263 9.71503C12.2283 9.39651 12.5201 8.95921 12.6598 8.46572L12.871 7.72018V7.71995C12.9884 7.30991 13.2761 6.96995 13.6609 6.78624C14.046 6.60276 14.4913 6.59316 14.8837 6.76012L15.5973 7.06101V7.06079C16.0703 7.26035 16.5939 7.30566 17.0944 7.19092C17.5946 7.07597 18.0459 6.80655 18.3845 6.42081L18.8997 5.84155C19.1818 5.52101 19.5894 5.33887 20.0164 5.34244C20.4459 5.35093 20.8508 5.54445 21.127 5.87369L21.639 6.45604C21.9774 6.84108 22.4281 7.11004 22.9279 7.22478C23.4274 7.33973 23.9504 7.29465 24.423 7.09599L25.1366 6.79844C25.5283 6.63371 25.9718 6.64443 26.3553 6.82791C26.7388 7.01139 27.0254 7.35 27.143 7.75825L27.351 8.50379L27.3508 8.50402C27.4885 9 27.7789 9.43996 28.1812 9.76116C28.5834 10.0824 29.0767 10.2683 29.591 10.2929L30.3653 10.3344C30.7457 10.3533 31.1042 10.5176 31.3669 10.7933C31.6296 11.069 31.7763 11.435 31.7765 11.816C31.7767 11.9049 31.7693 11.9937 31.7542 12.0814L31.6167 12.843H31.6164C31.5263 13.348 31.5966 13.8682 31.8176 14.331C32.0388 14.7935 32.3993 15.1752 32.8486 15.4223L33.5269 15.7935C33.762 15.9254 33.9571 16.1185 34.0912 16.3524C34.2251 16.5861 34.2934 16.852 34.2885 17.1216C34.2863 17.4312 34.1867 17.7324 34.0037 17.9823L34.0036 17.9792Z" fill="#C2F756"/>
<path d="M22.9061 14.4941C21.8197 14.4903 20.7721 14.8986 19.9748 15.6365C18.8534 14.62 17.282 14.2647 15.8324 14.6995C14.3827 15.1343 13.2664 16.296 12.8896 17.7618C12.5128 19.2276 12.9306 20.7837 13.9909 21.8638L19.2259 27.0988C19.4255 27.3015 19.6969 27.4165 19.9813 27.4189C20.2657 27.418 20.5378 27.3026 20.7364 27.0988L25.9556 21.8734C26.7677 21.0636 27.2246 19.9643 27.2255 18.8174C27.2264 17.6708 26.7713 16.5708 25.9603 15.7598C25.1496 14.9487 24.0496 14.4935 22.9027 14.4942L22.9061 14.4941ZM25.2773 21.1953L20.0547 26.4207C20.0128 26.4609 19.9465 26.4609 19.9045 26.4207L14.6724 21.1888C14.0172 20.5644 13.6414 19.7021 13.6302 18.7972C13.6193 17.8923 13.9735 17.0211 14.6135 16.3809C15.2532 15.7408 16.1242 15.3856 17.0291 15.3961C17.934 15.4066 18.7965 15.7819 19.4212 16.4368L19.6357 16.6513L19.6355 16.6511C19.8264 16.8298 20.1232 16.8298 20.3141 16.6511L20.5253 16.4399C21.3746 15.591 22.6123 15.2598 23.7723 15.5709C24.9322 15.8823 25.8378 16.7886 26.1482 17.9486C26.4587 19.1086 26.1266 20.3461 25.2773 21.195L25.2773 21.1953ZM34.7813 18.5424C35.1927 17.9734 35.34 17.2551 35.1858 16.57C35.0315 15.885 34.5904 15.2993 33.9748 14.9616L33.2965 14.5904C33.0231 14.4404 32.8039 14.2082 32.6695 13.927C32.5351 13.6457 32.4925 13.3292 32.5476 13.0223L32.6851 12.2607H32.6853C32.7108 12.1172 32.7237 11.9714 32.7237 11.8257C32.7237 11.1986 32.4829 10.5959 32.0511 10.1415C31.6194 9.68703 31.0295 9.41583 30.4036 9.38389L29.6292 9.34237C29.3179 9.32608 29.0196 9.21224 28.7768 9.01692C28.5337 8.82161 28.3585 8.55487 28.2757 8.25441L28.0676 7.52161C27.8784 6.84795 27.41 6.28744 26.7806 5.98167C26.1514 5.67586 25.4212 5.65399 24.7748 5.92162L24.0612 6.21916C23.7737 6.33948 23.4556 6.36671 23.1518 6.29662C22.8482 6.22653 22.5742 6.06292 22.3683 5.82876L21.8563 5.24642H21.8565C21.3929 4.71896 20.725 4.41585 20.0228 4.41431C19.3232 4.41431 18.657 4.71364 18.1924 5.23688L17.6643 5.80962C17.4578 6.04243 17.1833 6.20471 16.8795 6.27302C16.5757 6.34132 16.2581 6.31252 15.9717 6.19043L15.2581 5.88954C14.6117 5.61498 13.8782 5.63128 13.2447 5.93418C12.611 6.2373 12.138 6.79801 11.946 7.47366L11.7349 8.21921C11.6494 8.51832 11.4721 8.78305 11.228 8.97589C10.984 9.16875 10.6855 9.28013 10.3748 9.29442L9.60047 9.33281C8.97189 9.36071 8.37835 9.63035 7.94378 10.0853C7.50918 10.5402 7.26698 11.1453 7.26766 11.7744C7.26722 11.9159 7.27905 12.0572 7.30271 12.1967L7.43731 12.9616C7.49021 13.2686 7.44534 13.5844 7.30941 13.8646C7.17325 14.1447 6.95271 14.3751 6.67883 14.5232L6.00049 14.8815C5.38061 15.2159 4.93489 15.8007 4.77683 16.4869C4.61858 17.173 4.76366 17.894 5.17482 18.4657L5.62594 19.1056C5.80808 19.3587 5.90607 19.6625 5.90607 19.9744C5.90607 20.2862 5.80808 20.59 5.62594 20.8431L5.17147 21.483L5.1717 21.4833C4.76902 22.0502 4.62638 22.7616 4.77973 23.44C4.93286 24.1183 5.36745 24.6996 5.97482 25.0384L6.65316 25.4096C6.92682 25.5592 7.14646 25.7911 7.28082 26.0726C7.41542 26.3541 7.45761 26.6708 7.40202 26.9775L7.26453 27.7391H7.2643C7.23886 27.8829 7.22591 28.0284 7.22591 28.1744C7.22591 28.8012 7.46676 29.4041 7.89848 29.8585C8.33018 30.3128 8.92014 30.584 9.54602 30.6161L10.3204 30.6577C10.6313 30.6737 10.9293 30.7871 11.1721 30.9818C11.415 31.1764 11.5907 31.4425 11.6739 31.7425L11.882 32.4815C12.0712 33.1552 12.5396 33.7157 13.169 34.0215C13.7982 34.3273 14.5284 34.3492 15.1748 34.0815L15.8884 33.784C16.1759 33.6637 16.494 33.6364 16.7978 33.7065C17.1014 33.7766 17.3754 33.9402 17.5813 34.1744L18.0933 34.7567H18.0931C18.5567 35.2842 19.2246 35.5873 19.9268 35.5888C20.6264 35.5888 21.2926 35.2895 21.7572 34.7663L22.2723 34.187C22.479 33.9542 22.7536 33.7921 23.0574 33.7236C23.3612 33.6553 23.6788 33.6843 23.9652 33.8064L24.6788 34.1073V34.1071C25.3252 34.3819 26.0585 34.3656 26.6922 34.0625C27.3259 33.7593 27.7988 33.1989 27.9908 32.5231L28.202 31.7776V31.7774C28.2897 31.4778 28.4694 31.2133 28.7158 31.0216C28.9623 30.8298 29.2627 30.7202 29.5748 30.7086L30.3491 30.6733V30.6736C30.9774 30.6445 31.5703 30.3749 32.0049 29.9202C32.4393 29.4655 32.682 28.8608 32.682 28.2318C32.6824 28.0903 32.6706 27.949 32.6469 27.8095L32.5092 27.0414C32.4563 26.7345 32.5009 26.4187 32.6371 26.1385C32.7733 25.8584 32.9938 25.628 33.2677 25.4798L33.9492 25.1216C34.569 24.7872 35.0148 24.2024 35.1728 23.5162C35.3311 22.83 35.186 22.109 34.7748 21.5374L34.3237 20.8974C34.1416 20.6443 34.0436 20.3405 34.0436 20.0287C34.0436 19.7169 34.1416 19.4131 34.3237 19.16L34.7813 18.5424ZM34.0036 17.9792L33.5492 18.6191C33.2501 19.0354 33.0889 19.5352 33.0889 20.0479C33.0889 20.5607 33.2501 21.0605 33.5492 21.4767L34.0003 22.1167H34.0005C34.1811 22.3674 34.2784 22.6685 34.2789 22.9774C34.2793 23.2463 34.207 23.5102 34.0695 23.7412C33.932 23.9722 33.7347 24.1617 33.498 24.2894L32.8163 24.6575C32.367 24.9004 32.005 25.2778 31.7811 25.737C31.5574 26.1961 31.4829 26.714 31.5684 27.2176L31.6996 27.9792C31.7146 28.0646 31.7219 28.1515 31.7219 28.2383C31.7217 28.6202 31.5742 28.9872 31.3101 29.2631C31.046 29.539 30.686 29.7026 30.3045 29.7198L29.5302 29.7551H29.5299C29.0177 29.7792 28.5257 29.9636 28.1239 30.2821C27.7219 30.6008 27.4302 31.0377 27.29 31.5312L27.0788 32.2767C26.9614 32.6868 26.6737 33.0267 26.2889 33.2104C25.9038 33.3939 25.4585 33.4035 25.0661 33.2368L24.3525 32.9359C23.8796 32.7365 23.3559 32.691 22.8555 32.806C22.3552 32.9207 21.9039 33.1901 21.5653 33.5759L21.0501 34.1551C20.7673 34.4732 20.3619 34.6549 19.9365 34.6544C19.5099 34.6531 19.1046 34.4692 18.8229 34.1486L18.3109 33.5663C17.9722 33.1817 17.5214 32.9129 17.022 32.7982C16.5224 32.6833 15.9994 32.7281 15.5269 32.9264L14.8133 33.2239C14.4216 33.3886 13.9781 33.3779 13.5946 33.1944C13.2111 33.011 12.9245 32.6723 12.8069 32.2641L12.5988 31.5186L12.599 31.5183C12.4609 31.023 12.17 30.5838 11.7678 30.2632C11.3658 29.9426 10.8727 29.7569 10.3589 29.7328L9.58453 29.6913V29.6911C9.20418 29.6723 8.84567 29.5081 8.58299 29.2322C8.32026 28.9565 8.17361 28.5905 8.17339 28.2096C8.17316 28.1205 8.18053 28.0317 8.19571 27.944L8.3332 27.1824H8.33343C8.42383 26.6781 8.35352 26.158 8.13254 25.6957C7.91133 25.2335 7.55082 24.8524 7.10128 24.6065L6.43568 24.1967C6.06179 23.9913 5.79396 23.6353 5.70042 23.2192C5.60667 22.8029 5.69618 22.3665 5.94618 22.0208L6.40065 21.3808C6.69975 20.9645 6.86091 20.4648 6.86091 19.952C6.86091 19.4393 6.69975 18.9395 6.40065 18.5232L5.94953 17.8833H5.94931C5.70154 17.536 5.61471 17.0991 5.71069 16.6835C5.8069 16.2679 6.07676 15.9136 6.45178 15.7103L7.13349 15.3422V15.3425C7.58238 15.0992 7.94423 14.7217 8.16806 14.2626C8.39172 13.8036 8.46628 13.286 8.38146 12.7825L8.25021 12.0209C8.23525 11.9354 8.22788 11.8485 8.22788 11.7617C8.22811 11.3798 8.37565 11.0129 8.63971 10.7369C8.90378 10.461 9.26383 10.2974 9.64531 10.28L10.4197 10.2416H10.4199C10.9324 10.2182 11.4243 10.0338 11.8263 9.71503C12.2283 9.39651 12.5201 8.95921 12.6598 8.46572L12.871 7.72018V7.71995C12.9884 7.30991 13.2761 6.96995 13.6609 6.78624C14.046 6.60276 14.4913 6.59316 14.8837 6.76012L15.5973 7.06101V7.06079C16.0703 7.26035 16.5939 7.30566 17.0944 7.19092C17.5946 7.07597 18.0459 6.80655 18.3845 6.42081L18.8997 5.84155C19.1818 5.52101 19.5894 5.33887 20.0164 5.34244C20.4459 5.35093 20.8508 5.54445 21.127 5.87369L21.639 6.45604C21.9774 6.84108 22.4281 7.11004 22.9279 7.22478C23.4274 7.33973 23.9504 7.29465 24.423 7.09599L25.1366 6.79844C25.5283 6.63371 25.9718 6.64443 26.3553 6.82791C26.7388 7.01139 27.0254 7.35 27.143 7.75825L27.351 8.50379L27.3508 8.50402C27.4885 9 27.7789 9.43996 28.1812 9.76116C28.5834 10.0824 29.0767 10.2683 29.591 10.2929L30.3653 10.3344C30.7457 10.3533 31.1042 10.5176 31.3669 10.7933C31.6296 11.069 31.7763 11.435 31.7765 11.816C31.7767 11.9049 31.7693 11.9937 31.7542 12.0814L31.6167 12.843H31.6164C31.5263 13.348 31.5966 13.8682 31.8176 14.331C32.0388 14.7935 32.3993 15.1752 32.8486 15.4223L33.5269 15.7935C33.762 15.9254 33.9571 16.1185 34.0912 16.3524C34.2251 16.5861 34.2934 16.852 34.2885 17.1216C34.2863 17.4312 34.1867 17.7324 34.0037 17.9823L34.0036 17.9792Z" stroke="#C2F756" stroke-width="0.4" mask="url(#path-1-outside-1_94_2425)"/>
</svg>
