<svg width="33" height="40" viewBox="0 0 33 40" fill="none" xmlns="http://www.w3.org/2000/svg">
<g clip-path="url(#clip0_94_2475)">
<path d="M23.3217 27.9244C23.5264 27.9755 23.7824 27.9755 23.9874 27.9755C24.9089 27.9755 25.8306 27.6683 26.5985 27.1051C27.52 26.3883 28.1857 25.3644 28.3393 24.238C28.6978 21.8316 27.0593 19.5787 24.6529 19.2205C22.2465 18.8619 19.9936 20.5005 19.6353 22.9069C19.4818 24.0844 19.7378 25.2108 20.4546 26.1837C21.1203 27.1055 22.1442 27.7708 23.3217 27.9244L23.3217 27.9244ZM20.6081 23.0605C20.8642 21.2173 22.6049 19.9373 24.4481 20.2444C26.2913 20.5005 27.5713 22.2412 27.2642 24.0844C27.1106 24.9547 26.6499 25.774 25.9331 26.2858C25.2163 26.7979 24.2945 27.0537 23.4242 26.9001C22.5539 26.7465 21.7346 26.2858 21.2228 25.569C20.7107 24.8526 20.506 23.9308 20.6082 23.0604L20.6081 23.0605Z" fill="#C2F756"/>
<path d="M24.8062 18.1962H24.9087C25.1648 18.1962 25.3695 17.9915 25.4209 17.7354L25.728 15.6361C25.7791 15.3801 25.5745 15.0729 25.3184 15.0729C25.0623 15.0219 24.7552 15.2265 24.7552 15.4826L24.448 17.5819C24.3455 17.889 24.4991 18.1451 24.8062 18.1962Z" fill="#C2F756"/>
<path d="M27.6737 19.4252C27.8272 19.4252 27.9808 19.3741 28.0833 19.2205L29.3633 17.582C29.5169 17.3773 29.5169 17.0187 29.2608 16.8652C29.0562 16.7116 28.6976 16.7116 28.544 16.9677L27.264 18.6059C27.1104 18.8105 27.1105 19.1691 27.3665 19.3227C27.469 19.3737 27.5712 19.4252 27.6737 19.4252L27.6737 19.4252Z" fill="#C2F756"/>
<path d="M29.0559 21.5754C29.1584 21.78 29.312 21.8825 29.5166 21.8825C29.5677 21.8825 29.6702 21.8825 29.7213 21.8314L31.667 21.0636C31.9231 20.9611 32.0766 20.6539 31.9741 20.3979C31.8716 20.1418 31.5645 19.9882 31.3084 20.0907L29.3627 20.8586C29.107 21.0121 28.9534 21.3193 29.0559 21.5754L29.0559 21.5754Z" fill="#C2F756"/>
<path d="M29.4144 24.3917C29.3634 24.6478 29.568 24.955 29.8751 24.955L31.9744 25.211H32.0255C32.2816 25.211 32.4862 25.0064 32.5377 24.7503C32.5887 24.4942 32.3841 24.1871 32.0769 24.1871L29.9776 23.931C29.7216 23.9307 29.4659 24.0842 29.4144 24.3917Z" fill="#C2F756"/>
<path d="M28.3394 27.0028C28.1858 27.2074 28.2369 27.566 28.4419 27.7196L30.1315 28.9996C30.234 29.0507 30.3361 29.1021 30.4386 29.1021C30.5922 29.1021 30.7458 29.051 30.8483 28.8974C31.0018 28.6928 30.9508 28.3342 30.7458 28.1807L29.0562 26.9007C28.8512 26.7467 28.4929 26.7982 28.3394 27.0028H28.3394Z" fill="#C2F756"/>
<path d="M26.0864 28.7437C25.8303 28.8462 25.7278 29.1534 25.8303 29.4095L26.6496 31.3551C26.7521 31.5598 26.9057 31.6623 27.1103 31.6623C27.1614 31.6623 27.2639 31.6623 27.315 31.6112C27.5711 31.5087 27.6736 31.2016 27.5711 30.9455L26.7518 28.9998C26.6496 28.7438 26.3936 28.6412 26.0864 28.7437H26.0864Z" fill="#C2F756"/>
<path d="M19.1233 30.74C19.2769 30.74 19.4305 30.6889 19.533 30.5354L20.7619 28.8458C20.9155 28.6411 20.8644 28.2826 20.6594 28.129C20.4547 27.9754 20.0962 28.0265 19.9426 28.2315L18.7137 29.9211C18.5601 30.1257 18.6112 30.4843 18.8162 30.6379C18.9187 30.6889 19.0209 30.74 19.1234 30.74H19.1233Z" fill="#C2F756"/>
<path d="M18.9186 25.876C18.8161 25.62 18.5089 25.5175 18.2529 25.62L16.3586 26.4903C16.1025 26.5928 16 26.9 16.1025 27.156C16.205 27.3607 16.3586 27.4632 16.5632 27.4632C16.6143 27.4632 16.7168 27.4632 16.7678 27.4121L18.6622 26.5418C18.9186 26.4393 19.0207 26.1321 18.9186 25.876H18.9186Z" fill="#C2F756"/>
<path d="M15.7954 23.3677L17.8947 23.5723H17.9458C18.2018 23.5723 18.4065 23.3677 18.4579 23.1116C18.509 22.8555 18.3043 22.5995 17.9972 22.5484L15.8979 22.3438C15.6418 22.3438 15.3858 22.4973 15.3347 22.8045C15.3343 23.0605 15.5393 23.3166 15.7954 23.3677H15.7954Z" fill="#C2F756"/>
<path d="M18.7135 20.5516C18.816 20.6026 18.9181 20.6541 19.0206 20.6541C19.1742 20.6541 19.3278 20.603 19.4303 20.4494C19.5839 20.1933 19.5328 19.8862 19.3278 19.7326L17.5871 18.5034C17.331 18.3498 17.0239 18.4009 16.8703 18.6059C16.7167 18.8105 16.7678 19.1691 16.9728 19.3227L18.7135 20.5516Z" fill="#C2F756"/>
<path d="M20.9152 18.4007C21.0177 18.6053 21.1713 18.7078 21.376 18.7078C21.427 18.7078 21.5295 18.7078 21.5806 18.6568C21.8367 18.5543 21.9392 18.2471 21.8367 17.9911L20.9663 16.0967C20.8638 15.8407 20.5567 15.7382 20.3006 15.8407C20.0445 15.9432 19.942 16.2503 20.0445 16.5064L20.9152 18.4007Z" fill="#C2F756"/>
<path d="M5.24791 17.1209V29.9721C5.24791 35.1432 9.4465 39.2905 14.5663 39.2905C19.6861 39.2905 23.8847 35.0919 23.8847 29.9721C23.8847 29.665 23.6801 29.46 23.3726 29.46C23.0654 29.46 22.8604 29.6646 22.8604 29.9721C22.8604 34.5799 19.1229 38.2664 14.5661 38.2664C9.9583 38.2664 6.2718 34.5289 6.2718 29.9721V17.1209C9.03642 16.8138 11.2382 14.4584 11.2382 11.5913V6.57381C11.2382 6.26667 11.0336 6.06167 10.7261 6.06167H9.18997C9.18997 6.0106 9.24104 5.95917 9.24104 5.90809V1.19769C9.24104 0.890548 9.03639 0.685547 8.72889 0.685547C8.42175 0.685547 8.21674 0.890192 8.21674 1.19769V5.90809C8.21674 5.95916 8.21675 6.01059 8.26782 6.06167H3.19893C3.19893 6.0106 3.25 5.95917 3.25 5.90809V1.19769C3.25 0.890548 3.04535 0.685547 2.73785 0.685547C2.4307 0.685547 2.2257 0.890192 2.2257 1.19769V5.90809C2.2257 5.95916 2.2257 6.01059 2.27677 6.06167H0.740684C0.433538 6.06167 0.228538 6.26631 0.228538 6.57381V11.5913C0.127464 14.5099 2.38031 16.9163 5.24751 17.1209H5.24791ZM1.15219 7.08572H10.2147V11.5914C10.2147 14.1003 8.16686 16.0971 5.70899 16.0971C3.25148 16.0971 1.2033 14.0493 1.2033 11.5914V7.08572H1.15219Z" fill="#C2F756"/>
</g>
<defs>
<clipPath id="clip0_94_2475">
<rect width="33" height="40" fill="white"/>
</clipPath>
</defs>
</svg>
