<svg width="40" height="40" viewBox="0 0 40 40" fill="none" xmlns="http://www.w3.org/2000/svg">
<path d="M26.2971 19.2887L32.2045 13.3824C32.3101 13.2764 32.3719 13.1374 32.386 12.9898C32.5277 12.9757 32.6664 12.9173 32.7748 12.8083C34.3182 11.265 34.3182 8.75388 32.7748 7.21056C32.0273 6.46233 31.0333 6.0505 29.9758 6.0505C28.9182 6.0505 27.9242 6.46256 27.1767 7.21056C27.0657 7.3215 27.007 7.46346 26.9945 7.6081C26.8499 7.6215 26.7095 7.67752 26.6048 7.78244L20.6985 13.6899L12.4602 5.45158C12.2203 5.21096 11.795 5.21162 11.5549 5.45158L5.46686 11.5419C5.21686 11.7919 5.21686 12.197 5.46686 12.4468L13.7034 20.6851L8.36349 26.0252C8.29786 26.0909 8.24742 26.1697 8.21572 26.2565L6.24298 31.6114C5.84298 32.694 6.20525 33.2779 6.45682 33.5295C6.62736 33.7004 6.95079 33.9221 7.47979 33.9221C7.73001 33.9221 8.02644 33.8725 8.37379 33.7437L13.7162 31.7757C13.8048 31.7453 13.8883 31.6947 13.959 31.6239L13.9597 31.6232L19.3013 26.2828L27.5384 34.52C27.6585 34.6401 27.8212 34.7075 27.9909 34.7075C28.1607 34.7075 28.3237 34.6401 28.4438 34.52L34.5323 28.4297C34.7823 28.1797 34.7823 27.7745 34.5323 27.5248L26.2971 19.2887ZM29.9757 7.33101C30.6909 7.33101 31.3636 7.60981 31.8694 8.11604C32.9136 9.16044 32.9136 10.8594 31.8694 11.904C31.8279 11.9455 31.7956 11.9926 31.7681 12.0415L27.9445 8.21737C27.9933 8.18947 28.0404 8.1571 28.0819 8.11558C28.5878 7.60978 29.2603 7.33101 29.9757 7.33101H29.9757ZM13.1757 18.3464L14.8223 16.6994C15.0723 16.4494 15.0723 16.044 14.8223 15.794C14.5723 15.5444 14.1672 15.544 13.9169 15.794L12.2705 17.4411L10.052 15.2221L11.6978 13.5763C11.9478 13.3263 11.9478 12.9212 11.6978 12.6714C11.4478 12.4214 11.0424 12.4214 10.7929 12.6714L9.1471 14.3172L6.82453 11.9942L12.0078 6.80918L19.7935 14.5949L14.6089 19.7797L13.1757 18.3464ZM13.5076 30.2659L11.402 28.1599C11.1524 27.9099 10.7466 27.9099 10.4971 28.1599C10.2471 28.4099 10.2471 28.815 10.4971 29.0648L12.348 30.9159L7.93125 32.5432C7.56496 32.6782 7.38638 32.6396 7.36541 32.628C7.34755 32.6006 7.30849 32.422 7.4442 32.0546V32.0539L9.36831 26.8309L15.0493 21.1499C15.0536 21.1461 15.0583 21.1432 15.0625 21.1394C15.0668 21.1356 15.0692 21.1305 15.073 21.1262L21.1244 15.0742C21.1338 15.066 21.1443 15.0597 21.1532 15.0506C21.1622 15.0417 21.1682 15.0312 21.1769 15.0218L27.0569 9.14122L30.846 12.9307L18.8711 24.9044C18.8635 24.9116 18.8544 24.9165 18.8468 24.9243C18.8392 24.9319 18.8341 24.9406 18.8269 24.9484L13.5076 30.2659ZM27.991 33.1625L25.6669 30.8386L27.3135 29.192C27.5635 28.942 27.5635 28.5368 27.3135 28.2871C27.064 28.0371 26.6582 28.0371 26.4086 28.2871L24.762 29.9337L22.5442 27.7154L24.1913 26.0683C24.4413 25.8183 24.4413 25.4132 24.1913 25.1634C23.9417 24.9134 23.5359 24.9134 23.2863 25.1634L21.6393 26.8105L20.2067 25.3782L25.3919 20.1938L33.1748 27.9772L27.991 33.1625Z" fill="#C2F756"/>
</svg>
